<?xml version="1.0" encoding="utf-8"?>
<!-- Generator: Adobe Illustrator 17.0.0, SVG Export Plug-In . SVG Version: 6.00 Build 0)  -->
<!DOCTYPE svg PUBLIC "-//W3C//DTD SVG 1.1//EN" "http://www.w3.org/Graphics/SVG/1.1/DTD/svg11.dtd">
<svg version="1.1" id="图层_1" xmlns="http://www.w3.org/2000/svg" xmlns:xlink="http://www.w3.org/1999/xlink" x="0px" y="0px"
	 width="200px" height="200px" viewBox="0 0 200 200" enable-background="new 0 0 200 200" xml:space="preserve">
<g>
	<g transform="scale(0.1953125, 0.1953125)">
		<path fill="#6B6B6B" d="M511.999,0C228.799,0,0,228.799,0,511.999s228.799,511.999,511.999,511.999
			s511.999-228.799,511.999-511.999S795.198,0,511.999,0z M716.798,334.399c0,0-225.599,393.599-230.399,396.799
			c-12.8,12.8-33.6,11.2-44.8-1.6l-145.6-134.4c-12.8-12.8-11.2-33.6,1.6-44.8c12.8-12.8,33.6-11.2,44.8,1.6l115.2,105.6
			l204.799-355.199c9.6-16,28.8-20.8,43.2-11.2C719.998,299.199,724.798,318.399,716.798,334.399z"/>
	</g>
</g>
</svg>
