<?xml version="1.0" standalone="no"?><!DOCTYPE svg PUBLIC "-//W3C//DTD SVG 1.1//EN" "http://www.w3.org/Graphics/SVG/1.1/DTD/svg11.dtd"><svg width="64.25" height="64" viewBox="0 0 64.25 64" version="1.1" xmlns="http://www.w3.org/2000/svg" xmlns:xlink="http://www.w3.org/1999/xlink"><defs><style type="text/css"><![CDATA[
@font-face { font-family: ifont; src: url("//at.alicdn.com/t/font_1442373896_4754455.eot?#iefix") format("embedded-opentype"), url("//at.alicdn.com/t/font_1442373896_4754455.woff") format("woff"), url("//at.alicdn.com/t/font_1442373896_4754455.ttf") format("truetype"), url("//at.alicdn.com/t/font_1442373896_4754455.svg#ifont") format("svg"); }

]]></style></defs><g class="transform-group"><g transform="scale(0.0625, 0.0625)"><path d="M515.259136 0c-282.725767 0-511.906151 229.188915-511.906151 511.906151s229.188915 511.906151 511.906151 511.906151c282.717235 0 511.906151-229.188915 511.906151-511.906151S797.967839 0 515.259136 0zM401.095532 512.093849C389.091333 522.12721 366.866075 533.090533 341.270767 545.086201l0 209.958308c0 31.960007-7.200813 50.994384-27.165153 56.992218-17.993501 7.968672-56.087851 5.997834-114.061222-5.997834-22.029028-5.997834-31.072703-20.996684-27.037177-44.988019 5.997834-21.977837 17.942311-30.978854 39.971339-26.994518C244.938561 742.067688 264.484844 741.086534 255.953075 731.053174L255.953075 581.081735c-8.531769 5.997834-24.998084 14.017697-48.989419 23.999867-22.029028 5.997834-37.991968-0.981153-49.987636-20.996684-8.011331-23.999867-2.499808-42.974521 15.493693-56.992218 3.984336-3.984336 16.244489-10.963323 40.244355-20.996684C234.691906 496.113846 255.953075 488.102515 255.953075 482.096149L255.953075 341.458466l-61.991835 0c-22.029028-8.531769-32.992351-18.147073-32.992351-44.160437C162.939728 273.306694 174.935395 256.140774 196.964423 256.140774L255.953075 256.140774 255.953075 158.161937c8.531769-17.993501 18.147073-27.975671 44.160437-29.9977C324.104847 130.177734 341.270767 140.159904 341.270767 158.161937L341.270767 256.140774l50.661645 0c19.96434 0 30.978854 17.16592 32.992351 41.157255C422.902734 323.311393 411.88822 332.926697 391.932412 341.458466L341.270767 341.458466l0 107.645332c0 0 6.816884-1.962307 14.828215-5.997834 5.997834-3.984336 9.896852-5.997834 11.91035-5.997834 21.977837-7.968672 39.032844-0.981153 51.028511 20.996684C427.015047 480.133842 421.059872 498.127343 401.095532 512.093849zM841.846728 404.115779c-17.993501 8.011331-35.731049 5.997834-49.689024-5.997834C794.120011 408.142774 793.454533 416.111446 793.454533 422.10928L793.454533 551.084035c8.531769 91.998067-46.29338 125.980104-160.269284 101.980237-29.9977-7.968672-42.172535-24.98102-38.14554-50.994384 5.997834-23.999867 27.301661-33.973505 59.312859-29.9977C698.316775 582.114079 716.668611 574.102748 716.668611 548.089384l0-77.988902C716.668611 458.104814 707.855293 452.371465 697.873123 452.371465l-152.974621 0C540.871507 452.371465 537.501458 457.123661 537.501458 461.099465L537.501458 704.058656c0 23.999867 10.400227 38.392961 34.391562 38.392961l140.970422 0c47.991202 0 69.969039-22.199663 65.984703-76.188699 1.962307-19.96434 14.99885-31.576078 38.990185-33.598107 23.999867 2.013498 36.976688 11.833564 38.990185 31.797904C862.843412 770.427288 818.836547 819.23754 724.867641 819.23754L562.900535 819.23754C490.909467 819.23754 452.183766 786.023362 452.183766 722.052157L452.183766 419.114629c-17.063538 14.017697-39.126693 11.995667-57.120195-5.997834-16.031194-19.96434-16.099448-38.990185-0.068254-56.992218C486.942194 274.151339 548.916965 204.1823 580.928163 146.157738c23.999867-25.962174 50.977321-26.994518 80.966489-3.003183 43.955675 52.026728 92.970689 103.012581 146.968256 152.974621 3.984336 2.013498 6.970455 4.035527 8.992485 5.997834 3.984336 4.035527 9.98217 9.001016 17.993501 14.99885 21.977837 16.031194 32.992351 31.030044 32.992351 44.988019C868.841246 382.137941 859.840229 396.147106 841.846728 404.115779zM625.882055 229.078002C579.861692 287.102565 540.871507 332.926697 508.902968 367.053773l248.957025 0C709.868791 332.926697 665.861925 281.104731 625.882055 229.078002z" fill="#ffffff"></path></g></g></svg>