<?xml version="1.0" encoding="utf-8"?>
<!-- Generator: Adobe Illustrator 17.0.0, SVG Export Plug-In . SVG Version: 6.00 Build 0)  -->
<!DOCTYPE svg PUBLIC "-//W3C//DTD SVG 1.1//EN" "http://www.w3.org/Graphics/SVG/1.1/DTD/svg11.dtd">
<svg version="1.1" id="图层_1" xmlns="http://www.w3.org/2000/svg" xmlns:xlink="http://www.w3.org/1999/xlink" x="0px" y="0px"
	 width="200px" height="200px" viewBox="0 0 200 200" enable-background="new 0 0 200 200" xml:space="preserve">
<g>
	<g transform="scale(0.1953125, 0.1953125)">
		<path fill="#6B6B6B" d="M693.527,231.749c33.938,4.777,69.254-1.371,96.966,3.343c44.879,7.635,67.627,45.798,62.696,101.978
			c-18.112,0-36.222,0-54.338,0c-1.531,99.661-0.833,198.421-0.833,298.413c0,50.469,4.203,103.547-0.835,148.787
			c-4.767,42.771-36.096,68.819-74.398,75.231c-37.768,6.322-87.886,1.672-129.567,1.672c-87.402,0-175.966,1.693-261.644,0
			c-41.725-0.826-72.465-14.067-91.116-39.289c-18.653-25.219-16.718-63.384-16.718-108.664c0-126.147,0-251.233,0-376.151
			c-17.277,0-34.553,0-51.828,0c-8.416-51.69,13.963-88.836,51.828-101.142c27.834-9.048,64.942-1.74,104.489-4.179
			c-3.193-55.638-0.186-97.903,47.649-103.65c21.379-2.57,49.928,0,76.067,0c47.131,0,101.748,0,152.14,0
			c29.008,0,58.693-2.8,73.561,10.03C698.238,155.901,692.847,196.84,693.527,231.749z M380.055,183.267c0,16.718,0,33.435,0,50.153
			c87.215,0,174.429,0,261.643,0c0-17.554,0-35.107,0-52.66c-86.934,0-173.873,0-260.808,0
			C379.916,180.9,379.983,182.08,380.055,183.267z M329.064,342.921c0,105.787,0,211.132,0,318.474
			c0,27.205-6.255,85.167,10.031,96.963c6.479,4.694,23.184,5.387,30.93,0c16.849-11.711,10.867-68.023,10.867-96.127
			c0-108.722,0-218.881,0-321.818c-16.996,0-33.995,0-50.991,0C328.926,340.553,328.991,341.734,329.064,342.921z M484.545,342.921
			c0,95.233,0,206.437,0,308.443c0,24.335-5.654,81.938,4.179,98.635c6.497,11.031,28.363,16.032,39.288,7.524
			c14.815-11.537,8.361-72.541,8.361-97.799c0-108.997,0-213.551,0-319.31c-16.997,0-33.997,0-50.992,0
			C484.407,340.553,484.473,341.734,484.545,342.921z M641.698,342.921c0,102.497,0,216.589,0,322.654
			c0,33.045-6.442,83.729,15.046,92.783c9.356,3.944,25.961,0.893,30.092-2.506c14.029-11.549,7.526-73.467,7.526-97.799
			c0-108.448,0-212.448,0-317.638c-17.277,0-34.554,0-51.828,0C641.56,340.553,641.626,341.734,641.698,342.921z"/>
	</g>
</g>
</svg>
