<?xml version="1.0" standalone="no"?><!DOCTYPE svg PUBLIC "-//W3C//DTD SVG 1.1//EN" "http://www.w3.org/Graphics/SVG/1.1/DTD/svg11.dtd"><svg width="200" height="200" viewBox="0 0 200 200" version="1.1" xmlns="http://www.w3.org/2000/svg" xmlns:xlink="http://www.w3.org/1999/xlink"><defs><style type="text/css"><![CDATA[
@font-face { font-family: ifont; src: url("http://at.alicdn.com/t/font_1442373896_4754455.eot?#iefix") format("embedded-opentype"), url("http://at.alicdn.com/t/font_1442373896_4754455.woff") format("woff"), url("http://at.alicdn.com/t/font_1442373896_4754455.ttf") format("truetype"), url("http://at.alicdn.com/t/font_1442373896_4754455.svg#ifont") format("svg"); }

]]></style></defs><g class="transform-group"><g transform="scale(0.1953125, 0.1953125)"><path d="M541.682 870.913l344.38-350.588c14.495-14.827 14.495-38.802 0-53.633-14.564-14.831-38.225-14.831-52.788 0l-320.346 326.247-320.472-326.248c-14.564-14.831-38.107-14.831-52.667 0-14.564 14.831-14.564 38.807 0 53.633l344.255 350.591c7.95 8.159 18.504 11.431 28.884 10.754 10.307 0.678 20.808-2.593 28.753-10.754v0zM512.928 606.951c10.312 0.746 20.808-2.589 28.753-10.626l344.38-350.594c14.495-14.827 14.495-38.802 0-53.756-14.564-14.828-38.225-14.703-52.788 0l-320.345 326.374-320.472-326.374c-14.564-14.703-38.107-14.828-52.667 0-14.564 14.955-14.564 38.93 0 53.756l344.255 350.593c7.949 8.037 18.504 11.372 28.884 10.626v0zM512.928 606.951z" fill="#6b6b6b"></path></g></g></svg>