<?xml version="1.0" encoding="utf-8"?>
<!-- Generator: Adobe Illustrator 17.0.0, SVG Export Plug-In . SVG Version: 6.00 Build 0)  -->
<!DOCTYPE svg PUBLIC "-//W3C//DTD SVG 1.1//EN" "http://www.w3.org/Graphics/SVG/1.1/DTD/svg11.dtd">
<svg version="1.1" id="图层_1" xmlns="http://www.w3.org/2000/svg" xmlns:xlink="http://www.w3.org/1999/xlink" x="0px" y="0px"
	 width="200px" height="200px" viewBox="0 0 200 200" enable-background="new 0 0 200 200" xml:space="preserve">
<g>
	<g transform="scale(0.1953125, 0.1953125)">
		<path fill="#F9F9F9" d="M511.999,30.208c-266.047,0-481.791,215.679-481.791,481.791s215.743,481.791,481.791,481.791
			S993.789,778.11,993.789,511.999S778.046,30.208,511.999,30.208z M150.656,511.999c0-199.551,161.792-361.343,361.343-361.343
			c82.688,0,158.656,28.096,219.583,74.816L221.375,726.078C177.152,666.11,150.656,592.254,150.656,511.999z M511.999,873.342
			c-75.84,0-146.112-23.424-204.223-63.296l505.983-496.575c37.632,57.024,59.584,125.184,59.584,198.527
			C873.342,711.55,711.55,873.342,511.999,873.342z"/>
	</g>
</g>
</svg>
