<?xml version="1.0" encoding="utf-8"?>
<!-- Generator: Adobe Illustrator 16.0.0, SVG Export Plug-In . SVG Version: 6.00 Build 0)  -->
<!DOCTYPE svg PUBLIC "-//W3C//DTD SVG 1.1//EN" "http://www.w3.org/Graphics/SVG/1.1/DTD/svg11.dtd">
<svg version="1.1" id="图层_1" xmlns="http://www.w3.org/2000/svg" xmlns:xlink="http://www.w3.org/1999/xlink" x="0px" y="0px"
	 width="240px" height="240px" viewBox="0 0 240 240" enable-background="new 0 0 240 240" xml:space="preserve">
<title>Group Copy</title>
<desc>Created with Sketch.</desc>
<g id="Page-1">
	<g id="Group-Copy">
		<ellipse id="Oval-1" fill="#EB4F38" cx="120" cy="120" rx="120" ry="120"/>
		<g transform="scale(0.19, 0.19)">
			<g id="图层_1_1_">
				<path fill="#FFFFFF" d="M616.951,917.707H346.364c-19.4,0-35.156-16.005-35.156-35.711V557.332h658.838V387.115
					c0-48.101-38.487-87.202-85.835-87.202h-66.206v-51.48h-50.678v51.48H463.248v-51.48h-50.681v51.48h-66.203
					c-47.353,0-85.837,39.101-85.837,87.202v494.881c0,48.098,38.484,87.197,85.837,87.197h270.587
					c14.016,0,25.339-11.498,25.339-25.74C642.29,929.215,630.967,917.707,616.951,917.707z M387.228,634.555h177.377v51.485
					H387.228V634.555z M387.228,788.996h177.377v51.491H387.228V788.996z M894.028,711.775h-50.678v77.22v51.491h50.678h76.018
					v-51.491h-76.018V711.775z M1012.017,669.146c-38.333-38.934-89.165-60.331-143.329-60.331
					c-54.163,0-105.083,21.392-143.334,60.331c-38.322,38.929-59.39,90.574-59.39,145.595c0,55.016,21.068,106.749,59.39,145.6
					c38.328,38.929,89.17,60.331,143.334,60.331c54.163,0,105.078-21.402,143.329-60.331c38.322-38.934,59.385-90.584,59.385-145.6
					C1071.402,759.719,1050.339,707.998,1012.017,669.146z M868.688,969.187c-83.866,0-152.046-69.259-152.046-154.446
					c0-85.192,68.18-154.446,152.046-154.446c83.856,0,152.035,69.254,152.035,154.446
					C1020.724,899.928,952.544,969.187,868.688,969.187z"/>
			</g>
		</g>
	</g>
</g>
</svg>
