<?xml version="1.0" encoding="UTF-8" standalone="no"?>
<svg width="240px" height="240px" viewBox="0 0 240 240" version="1.1" xmlns="http://www.w3.org/2000/svg" xmlns:xlink="http://www.w3.org/1999/xlink">
    <!-- Generator: Sketch 3.8.3 (29802) - http://www.bohemiancoding.com/sketch -->
    <title>Group Copy</title>
    <desc>Created with Sketch.</desc>
    <defs></defs>
    <g id="Page-1" stroke="none" stroke-width="1" fill="none" fill-rule="evenodd">
        <g id="Group-Copy">
            <ellipse id="Oval-1" fill="#5AD3EF" cx="120" cy="120" rx="120" ry="120"></ellipse>
            <g id="饮料小食" transform="translate(54.339623, 54.339623)" fill="#FFFFFF">
                <g id="图层_1">
                    <path d="M37.3043378,0.571185911 C35.0167089,0.571185911 33.1667888,2.43719723 33.1667888,4.74202766 L33.1667888,45.584653 C33.1667888,51.4536011 29.7034238,56.3918613 24.8998628,58.2480868 L24.8998628,4.74202766 C24.8998628,2.43719723 23.0478997,0.571185911 20.7623138,0.571185911 C18.4772386,0.571185911 16.6288507,2.43719723 16.6288507,4.74202766 L16.6288507,58.2480868 C11.822736,56.3918613 8.35937097,51.4530861 8.35937097,45.5856831 L8.35937097,4.74202766 C8.35937097,2.43719723 6.5104724,0.571185911 4.22488646,0.571185911 C1.93981126,0.571185911 0.0909126922,2.43719723 0.0909126922,4.74202766 L0.0909126922,46.5668456 C0.0909126922,56.6529896 7.19282834,65.0657494 16.6288507,66.9987167 L16.6288507,129.827107 C16.6288507,132.131937 18.4777493,133.996918 20.7628245,133.996918 C23.0484105,133.996918 24.8998628,132.131937 24.8998628,129.827107 L24.8998628,66.9987167 C34.3353744,65.0642043 41.4378008,56.6529896 41.4378008,46.5653004 L41.4378008,4.74202766 C41.4383116,2.43719723 39.589413,0.571185911 37.3043378,0.571185911 L37.3043378,0.571185911 L37.3043378,0.571185911 L37.3043378,0.571185911 Z M122.430284,33.8560276 C122.430284,15.393177 109.445602,0.424912873 93.4245384,0.424912873 C77.4034747,0.424912873 64.4187929,15.3936921 64.4187929,33.8560276 C64.4187929,50.7212059 75.2665157,64.6315657 89.3544078,66.9183695 C89.3436822,67.0502213 89.2808605,67.1527154 89.2808605,67.2855973 L89.2808605,129.968229 C89.2808605,132.27512 91.1353772,134.145767 93.4240276,134.145767 C95.7131888,134.145767 97.5687271,132.274605 97.5687271,129.968229 L97.5687271,67.2855973 C97.5687271,67.1527154 97.5048839,67.0502213 97.4951797,66.9183695 C111.580518,64.6320808 122.430284,50.7212059 122.430284,33.8560276 L122.430284,33.8560276 L122.430284,33.8560276 L122.430284,33.8560276 Z M93.4245384,58.9264022 C81.9843508,58.9264022 72.7061487,47.7061271 72.7061487,33.8565427 C72.7061487,20.0095335 81.9843508,8.78410794 93.4245384,8.78410794 C104.864726,8.78410794 114.14395,20.0095335 114.14395,33.8565427 C114.14395,47.7061271 104.865237,58.9264022 93.4245384,58.9264022 L93.4245384,58.9264022 L93.4245384,58.9264022 L93.4245384,58.9264022 Z" id="Shape"></path>
                </g>
            </g>
        </g>
    </g>
</svg>