<?xml version="1.0" encoding="UTF-8" standalone="no"?>
<svg width="241px" height="240px" viewBox="0 0 241 240" version="1.1" xmlns="http://www.w3.org/2000/svg" xmlns:xlink="http://www.w3.org/1999/xlink">
    <!-- Generator: Sketch 3.8.3 (29802) - http://www.bohemiancoding.com/sketch -->
    <title>Group 4 Copy</title>
    <desc>Created with Sketch.</desc>
    <defs></defs>
    <g id="Page-1" stroke="none" stroke-width="1" fill="none" fill-rule="evenodd">
        <g id="Group-4-Copy" transform="translate(0.306784, 0.000000)">
            <ellipse id="Oval-1-Copy-3" fill="#FFB707" cx="120" cy="120" rx="120" ry="120"></ellipse>
            <g id="点赞" transform="translate(54.339623, 40.754717)" fill="#FFFFFF">
                <g id="图层_1">
                    <path d="M131.51105,61.6428831 C131.560088,62.2508502 131.514741,62.8742023 131.350752,63.4970238 L119.549891,115.903156 C119.384321,116.530752 119.111182,117.100523 118.765276,117.607692 C117.501878,120.146194 115.578833,122.392383 113.024089,124.027422 C110.332248,125.748935 107.325613,126.552131 104.356415,126.546826 L104.356415,126.513403 L28.554603,126.481042 C28.2893737,126.520831 28.0209806,126.547887 27.744678,126.547887 C27.4683755,126.547887 27.1989277,126.520831 26.9315892,126.480512 L6.76888518,126.471493 C6.4852005,126.517647 6.19729746,126.547887 5.90095771,126.547887 C2.88430334,126.547887 0.439763982,124.087901 0.439763982,121.053901 L0.488802412,55.090525 C0.488802412,52.0549333 2.93492365,49.595478 5.95157802,49.595478 C6.17673296,49.595478 6.39766954,49.6135154 6.61596965,49.6411021 L24.7401514,49.5986611 L24.7401514,49.4946807 C41.4163813,48.2941312 54.6303926,34.5400679 55.101267,17.5710997 C55.0596107,17.0941691 55.0290275,16.6135249 55.0290275,16.124923 C55.0290275,7.29719744 62.141709,0.140585774 70.9169515,0.140585774 C78.4572692,0.140585774 84.7563345,5.43032447 86.384094,12.5190306 L86.4642429,12.5089508 C87.3580078,16.5556991 87.8462829,20.7562959 87.8462829,25.0736054 C87.8462829,31.7299439 86.7157626,38.1183737 84.649821,44.0643562 L115.132742,44.0977785 C115.412735,44.0977785 115.687456,44.1253651 115.956904,44.1672756 C121.161305,44.3731144 126.174298,47.0686477 129.127149,51.8581132 C131.006429,54.9037846 131.756242,58.3255893 131.51105,61.6428831 L131.51105,61.6428831 Z M11.3668971,115.486174 L22.2887572,115.490948 L22.3298862,60.5940602 L11.418572,60.6184637 L11.3668971,115.486174 L11.3668971,115.486174 L11.3668971,115.486174 L11.3668971,115.486174 Z M119.910034,57.5993179 C118.860717,55.8963733 117.006221,55.0013989 115.148033,55.1016657 L115.148033,55.0852199 L115.134324,55.0852199 L76.6027728,55.0449009 C73.5877004,55.0449009 71.1426337,52.5838541 71.1426337,49.549854 C71.1426337,48.6766306 71.3509152,47.8527449 71.7121122,47.1190463 L71.6546371,47.0713002 C73.835529,42.9847636 75.4226868,38.5300513 76.3233065,33.8313034 L76.3913276,33.8328949 C76.3913276,33.8328949 77.1174127,30.8662698 77.1079214,25.1754638 C77.100012,20.6671698 76.2837594,16.551455 76.2837594,16.551455 L76.2421031,16.551455 C76.2463215,16.4718781 76.2542309,16.3933623 76.2542309,16.3127244 C76.2542309,13.4755443 73.9673527,11.1747122 71.1473794,11.1747122 C68.3258241,11.1747122 66.0394732,13.4750138 66.0394732,16.3127244 C66.0394732,16.4310287 66.0494919,16.5482719 66.056874,16.6649846 L65.9856892,16.6660456 C65.9856892,16.6660456 66.0726928,20.9557685 65.2216388,25.4041146 C64.8593872,27.2922081 64.3526567,29.0519176 63.8902191,30.4455735 C63.8802005,30.4413294 63.872291,30.4370853 63.863327,30.4323107 C59.2663697,44.571526 47.7080646,55.5313808 33.2633469,59.2232162 L33.2106174,115.494131 L104.382252,115.523309 C104.622699,115.523309 104.857872,115.543999 105.089882,115.57583 C105.800676,115.480338 106.501978,115.23365 107.145805,114.821442 C108.060662,114.236286 108.725053,113.407096 109.114197,112.470741 L109.128434,112.478699 L120.490586,62.0227299 L120.446293,62.0099976 C120.901348,60.5823889 120.757397,58.9728144 119.910034,57.5993179 L119.910034,57.5993179 Z" id="Shape"></path>
                </g>
            </g>
        </g>
    </g>
</svg>