<?xml version="1.0" encoding="UTF-8" standalone="no"?>
<svg width="241px" height="240px" viewBox="0 0 241 240" version="1.1" xmlns="http://www.w3.org/2000/svg" xmlns:xlink="http://www.w3.org/1999/xlink">
    <!-- Generator: Sketch 3.8.3 (29802) - http://www.bohemiancoding.com/sketch -->
    <title>Group 2 Copy</title>
    <desc>Created with Sketch.</desc>
    <defs></defs>
    <g id="Page-1" stroke="none" stroke-width="1" fill="none" fill-rule="evenodd">
        <g id="Group-2-Copy" transform="translate(0.600038, 0.000000)">
            <ellipse id="Oval-1-Copy" fill="#FF5C93" cx="120" cy="120" rx="120" ry="120"></ellipse>
            <g id="技师服务" transform="translate(63.396226, 54.339623)" fill="#FFFFFF">
                <g id="图层_1">
                    <path d="M99.6089299,25.1022932 L99.5696812,25.2574746 C88.4018924,20.0999129 84.0995179,8.40853411 89.01696,3.24940493 C93.9338856,-1.91024673 99.5696812,5.55256894 99.5696812,5.55256894 L99.6089299,5.55256894 C99.6089299,5.55256894 105.242143,-1.91024673 110.162684,3.24940493 C115.080126,8.40592163 110.774653,19.9395065 99.6089299,25.1022932 L99.6089299,25.1022932 L99.6089299,25.1022932 Z M57.0195021,76.965283 C52.4031384,93.5764877 69.6069557,102.700319 73.6278761,105.219797 C78.9254103,108.544964 99.1420776,100.206444 99.1420776,135.363135 L53.2309749,135.363135 L46.1419466,135.363135 L0.131173103,135.363135 C0.131173103,99.1206967 17.6913268,107.304035 25.6479567,105.299739 C30.1703302,104.157039 46.8752766,93.7332366 42.2578801,77.1230769 C18.1767706,80.142061 9.50953357,70.6017997 10.829011,70.9779971 C12.1479721,71.3573295 21.5273654,63.6003483 21.5273654,30.7551814 C21.5273654,-2.08894049 49.521978,0.141596517 49.521978,0.141596517 L49.7987842,0.141596517 C49.7987842,0.141596517 77.7644767,-2.08685051 77.7644767,30.7551814 C77.7644767,63.5977358 87.1325086,71.0422642 88.4514696,70.6660668 C89.7740457,70.2867344 81.0964801,79.9842671 57.0195021,76.965283 L57.0195021,76.965283 L57.0195021,76.965283 Z" id="Shape"></path>
                </g>
            </g>
        </g>
    </g>
</svg>