<?xml version="1.0" encoding="UTF-8" standalone="no"?>
<svg width="241px" height="240px" viewBox="0 0 240 240" version="1.1" xmlns="http://www.w3.org/2000/svg" xmlns:xlink="http://www.w3.org/1999/xlink">
    <!-- Generator: Sketch 3.8.3 (29802) - http://www.bohemiancoding.com/sketch -->
    <title>Group 3 Copy</title>
    <desc>Created with Sketch.</desc>
    <defs></defs>
    <g id="Page-1" stroke="none" stroke-width="1" fill="none" fill-rule="evenodd">
        <g id="Group-3-Copy" transform="translate(0.031187, 0.000000)">
            <ellipse id="Oval-1-Copy-2" fill="#00F674" cx="120" cy="120" rx="120" ry="120"></ellipse>
            <g id="搜索" transform="translate(54.339623, 54.339623)" fill="#FFFFFF">
                <g id="图层_1">
                    <path d="M129.691086,116.724238 L104.214859,91.2485493 C111.038157,81.7923786 115.059047,70.1796412 115.059047,57.6277451 C115.059047,25.8615775 89.3067244,0.107639963 57.5373276,0.107639963 C25.7700835,0.107639963 0.0166841942,25.8615775 0.0166841942,57.6277451 C0.0166841942,89.3949892 25.7706217,115.149465 57.5373276,115.149465 C70.0897618,115.149465 81.701961,111.128036 91.15867,104.304739 L116.634358,129.780427 C118.437328,131.582858 121.360291,131.582858 123.162722,129.780427 L129.691086,123.252601 C131.494055,121.45017 131.494055,118.527745 129.691086,116.724238 L129.691086,116.724238 L129.691086,116.724238 Z M16.4522301,57.6277451 C16.4522301,34.9367028 34.8473616,16.5415713 57.538404,16.5415713 C80.2299845,16.5415713 98.625116,34.9367028 98.625116,57.6277451 C98.625116,80.3204021 80.2299845,98.7155336 57.538404,98.7155336 C34.8473616,98.7155336 16.4522301,80.3198639 16.4522301,57.6277451 L16.4522301,57.6277451 L16.4522301,57.6277451 Z" id="Shape"></path>
                </g>
            </g>
        </g>
    </g>
</svg>