<?xml version="1.0" encoding="utf-8"?>
<!-- Generator: Adobe Illustrator 16.0.0, SVG Export Plug-In . SVG Version: 6.00 Build 0)  -->
<!DOCTYPE svg PUBLIC "-//W3C//DTD SVG 1.1//EN" "http://www.w3.org/Graphics/SVG/1.1/DTD/svg11.dtd">
<svg version="1.1" id="图层_1" xmlns="http://www.w3.org/2000/svg" xmlns:xlink="http://www.w3.org/1999/xlink" x="0px" y="0px"
	 width="241px" height="240px" viewBox="0 0 241 240" enable-background="new 0 0 241 240" xml:space="preserve">
<ellipse id="Oval-1-Copy-2" fill="#FF0DFF" cx="120.5" cy="120" rx="120" ry="120"/>
<g>
	<g transform="scale(0.1953125, 0.1953125)">
		<path fill="#FFFFFF" d="M1016.472,616.404L583.029,988.608c-12.02,10.33-27.47,16.015-43.5,16.015
			c-18.835,0-36.77-7.84-49.22-21.535l-68.632-75.33c-6.857-7.55-6.13-19.075,1.65-25.73c12.77-10.965,21.362-27.21,23.612-44.615
			c2.225-17.405-2.188-33.21-12.475-44.465c-11.505-12.655-26.222-15.315-36.572-15.315c-17.295,0-36.237,7.395-50.657,19.765
			c-7.54,6.495-19.027,6.045-26.015-1.04l-13.695-13.905l-63.252-69.45c-23.98-26.32-21.427-66.695,5.68-90.02l433.466-372.187
			c26.095-22.442,69.66-19.825,92.695,5.522l71.21,78.16c6.885,7.54,6.15,19.07-1.605,25.725
			c-25.355,21.772-27.705,59.512-5.25,84.145c21.575,23.665,62.135,26.107,86.59,5.162c7.73-6.68,19.6-5.985,26.505,1.56
			l68.615,75.335c11.64,12.79,17.45,29.16,16.37,46.167C1037.477,589.561,1029.637,605.134,1016.472,616.404z M708.313,278.132
			L274.829,650.308c-10.435,8.955-11.847,23.67-4.652,34.77l474.211-407.181C734.053,269.957,718.328,269.492,708.313,278.132z
			 M936.683,487.591c-15.135,8.682-32.445,13.337-50.255,13.337c-28.325,0-55.325-11.822-74.105-32.41
			c-31.9-35.02-32.695-86.522-4.385-122.24l-44.19-48.487L288.179,706.133l48.617,53.29c18.667-11.735,40.157-18.245,61.097-18.245
			c25.517,0,48.507,9.79,64.707,27.6c17.53,19.22,25.197,45.2,21.602,73.165c-2.55,19.805-10.737,38.755-23.1,54.055l39.572,43.445
			l475.601-408.359L936.683,487.591z M994.727,551.734L519.561,959.738c10.09,9.905,27.747,10.915,38.572,1.565l433.459-372.207
			c5.645-4.848,9-11.508,9.455-18.753C1001.492,563.511,999.117,557.044,994.727,551.734z M499.974,704.433l236.119-202.764
			c5.805-4.995,14.7-4.467,19.88,1.177c5.14,5.667,4.605,14.307-1.22,19.325L518.639,724.883c-2.66,2.305-6,3.46-9.325,3.46
			c-3.895,0-7.755-1.58-10.54-4.61C493.609,718.053,494.144,709.413,499.974,704.433z M792.428,563.534
			c5.825-5.038,14.73-4.465,19.885,1.182c5.155,5.647,4.615,14.287-1.2,19.302L574.994,786.733c-2.68,2.315-6.025,3.435-9.34,3.435
			c-3.88,0-7.777-1.565-10.545-4.61c-5.148-5.65-4.628-14.29,1.22-19.305L792.428,563.534z M460.354,660.888
			c-2.677,2.325-6.022,3.435-9.322,3.435c-3.897,0-7.775-1.56-10.562-4.59c-5.142-5.68-4.605-14.31,1.22-19.3l236.119-202.742
			c5.81-5.013,14.735-4.49,19.865,1.18c5.165,5.642,4.63,14.31-1.2,19.3L460.354,660.888z"/>
	</g>
</g>
</svg>
