<?xml version="1.0" encoding="UTF-8" standalone="no"?>
<svg width="94px" height="75px" viewBox="0 0 94 75" version="1.1" xmlns="http://www.w3.org/2000/svg" xmlns:xlink="http://www.w3.org/1999/xlink">
    <!-- Generator: Sketch 3.8.3 (29802) - http://www.bohemiancoding.com/sketch -->
    <title>home</title>
    <desc>Created with Sketch.</desc>
    <defs></defs>
    <g id="Page-1" stroke="none" stroke-width="1" fill="none" fill-rule="evenodd">
        <g id="home" fill="#FFAA0D">
            <path d="M86.1918612,43.1177026 L48.8377959,10.3989119 L48.2047347,9.81145797 C48.2047347,9.81145797 47.3901959,8.98403433 46.829649,8.90752714 C46.8089306,8.90348271 46.7878286,8.90752714 46.7632735,8.90348271 C46.7394857,8.90752714 46.7153143,8.90348271 46.6945959,8.90752714 C46.1041224,9.13064504 45.3053143,9.87414668 45.3053143,9.87414668 L44.688751,10.3989119 L7.4072,43.0550139 C4.22347755,42.2976938 1.57459592,40.423436 0.0951510204,37.8858912 L39.8690449,2.89615122 C43.7779102,-0.543976269 50.1188816,-0.543976269 54.0273633,2.89615122 L93.8645633,37.9455466 C92.3187429,40.5572393 89.523298,42.4328452 86.1918612,43.1177026 L86.1918612,43.1177026 L86.1918612,43.1177026 Z M81.1526939,44.2356603 L81.1526939,69.4430972 C81.1526939,72.1985121 78.357249,74.4337027 74.9053388,74.4337027 L59.4149061,74.4337027 C59.4302531,74.2778254 59.4663184,74.1292352 59.4663184,73.9701897 L59.4663184,54.2232078 C59.4663184,51.3743298 56.9114367,49.0650026 53.7599429,49.0650026 L40.5734694,49.0650026 C37.4189061,49.0650026 34.8663265,51.3743298 34.8663265,54.2232078 L34.8663265,73.9701897 C34.8663265,74.1292352 34.8997061,74.2778254 34.9173551,74.4337027 L19.2170531,74.4337027 C15.7655265,74.4337027 12.9689306,72.1985121 12.9689306,69.4430972 L12.9689306,43.7056144 L46.7632735,13.7005175 L81.1526939,44.2356603 L81.1526939,44.2356603 L81.1526939,44.2356603 Z" id="Shape"></path>
        </g>
    </g>
</svg>