<?xml version="1.0" encoding="utf-8"?>
<!-- Generator: Adobe Illustrator 17.0.0, SVG Export Plug-In . SVG Version: 6.00 Build 0)  -->
<!DOCTYPE svg PUBLIC "-//W3C//DTD SVG 1.1//EN" "http://www.w3.org/Graphics/SVG/1.1/DTD/svg11.dtd">
<svg version="1.1" id="图层_1" xmlns="http://www.w3.org/2000/svg" xmlns:xlink="http://www.w3.org/1999/xlink" x="0px" y="0px"
	 width="200px" height="200px" viewBox="0 0 200 200" enable-background="new 0 0 200 200" xml:space="preserve">
<g>
	<g transform="scale(0.1953125, 0.1953125)">
		<path fill="#6B6B6B" d="M852.899,171.096h-52.447v87.411c0,110.114-50.968,209.004-138.48,262.625
			c87.517,53.583,138.48,151.701,138.48,261.842v69.929h52.447c17.926,0,34.503,12.493,34.503,36.056
			c0,18.687-14.549,33.865-32.475,33.865h-5.578H174.178h-5.579c-17.922,0-32.465-15.177-32.465-33.874
			c0-18.687,12.699-36.046,34.956-36.046h52.447v-69.929c0-110.138,54.36-208.255,141.872-261.857
			c-87.514-53.62-141.874-152.502-141.874-262.609v-87.411h-52.447c-17.931,0-34.504-17.362-34.504-36.064
			c0-18.689,16.573-33.866,34.504-33.866l3.541,0.005h675.17h5.583c17.916,0,32.48,16.266,32.48,34.959
			C887.863,154.83,870.815,171.096,852.899,171.096z M730.522,171.096H293.465v87.411c0,108.684,57.611,203.253,158.712,229.767
			c4.195,1.105,7.995,3.016,11.28,5.535c0.049,0.034,0.097,0.067,0.141,0.107c0.268,0.2,0.522,0.415,0.775,0.618
			c0.194,0.16,0.39,0.32,0.581,0.482c0.112,0.097,0.223,0.2,0.341,0.301c4.985,4.396,8.756,10.405,10.484,17.54
			c1.838,7.621,1.039,15.279-1.787,21.941c-0.03,0.067-0.059,0.136-0.088,0.204c-0.152,0.341-0.299,0.69-0.464,1.026
			c-0.077,0.17-0.159,0.334-0.242,0.507c-0.121,0.252-0.248,0.505-0.381,0.757c-0.156,0.303-0.315,0.598-0.482,0.896
			c-0.078,0.131-0.141,0.248-0.21,0.374c-0.527,0.909-1.087,1.794-1.687,2.635c-0.015,0.021-0.029,0.038-0.038,0.059
			c-0.289,0.397-0.575,0.787-0.878,1.176c-0.042,0.059-0.092,0.118-0.141,0.175c-0.273,0.346-0.546,0.687-0.829,1.016
			c-0.063,0.074-0.127,0.147-0.19,0.214c-0.282,0.333-0.57,0.644-0.861,0.959c-0.064,0.064-0.122,0.127-0.181,0.194
			c-0.336,0.351-0.678,0.703-1.028,1.035c-0.021,0.015-0.029,0.025-0.044,0.044c-0.766,0.73-1.554,1.415-2.377,2.062
			c-0.04,0.03-0.089,0.064-0.127,0.093c-0.381,0.296-0.76,0.582-1.149,0.86c-0.034,0.025-0.078,0.053-0.112,0.078
			c-3.465,2.444-7.377,4.201-11.518,5.105c-100.484,26.959-157.499,120.432-157.499,228.707v69.929h437.057v-69.929
			c0-108.703-58.015-202.496-159.09-228.984c-0.527-0.137-1.049-0.282-1.56-0.453c-0.151-0.044-0.288-0.096-0.434-0.147
			c-0.303-0.101-0.608-0.204-0.911-0.315c-0.268-0.092-0.526-0.194-0.785-0.301c-0.156-0.059-0.312-0.122-0.463-0.185
			c-4.078-1.689-7.68-4.174-10.68-7.242c-0.049-0.048-0.097-0.097-0.147-0.145c-0.221-0.23-0.434-0.457-0.649-0.697
			c-0.141-0.156-0.282-0.305-0.423-0.466c-0.156-0.179-0.308-0.36-0.464-0.545c-0.204-0.24-0.409-0.487-0.604-0.734
			c-0.097-0.122-0.195-0.238-0.286-0.36c-0.289-0.375-0.57-0.755-0.853-1.142c0-0.011-0.005-0.015-0.015-0.026
			c-1.212-1.72-2.286-3.569-3.181-5.548c-0.011-0.014-0.015-0.029-0.025-0.049c-0.205-0.452-0.4-0.908-0.586-1.38
			c-0.023-0.049-0.049-0.097-0.067-0.145c-0.171-0.438-0.333-0.876-0.487-1.319c-0.025-0.068-0.048-0.136-0.078-0.209
			c-0.151-0.437-0.292-0.885-0.427-1.332c-0.015-0.059-0.04-0.122-0.059-0.185c-0.16-0.555-0.318-1.108-0.457-1.676
			c-0.093-0.385-0.16-0.768-0.245-1.153c-0.023-0.112-0.048-0.23-0.077-0.337c-0.078-0.437-0.151-0.864-0.219-1.297
			c-0.021-0.118-0.04-0.223-0.059-0.336c-0.074-0.487-0.127-0.963-0.181-1.449c0-0.059-0.015-0.112-0.021-0.17
			c-1.682-16.514,8.493-32.197,24.368-36.334c101.136-26.556,159.164-121.124,159.164-229.807L730.522,171.096L730.522,171.096
			L730.522,171.096z M558.038,437.586c-18.891,4.926-34.906,16.274-46.147,31.277c-3.5-4.66-7.483-8.975-11.913-12.881l-2.314-1.958
			l-1.819-1.639l-2.113-1.417c-8.506-6.21-17.986-10.717-28.195-13.407c-52.365-13.734-91.243-54.123-108.959-109.124H667.35
			C649.562,383.4,610.55,423.797,558.038,437.586z M494.758,634.313c0,0,3.003-2.45,3.099-2.521l0.416-0.297l1.947-1.628
			l0.319-0.305c1.371-1.198,2.696-2.457,3.989-3.793l1.721-1.802l2.35-2.747l2.372-3.022c0,0,0.796-1.178,0.833-1.237l4.809,7.339
			l2.106,1.134l0.63,0.567c6.009,6.141,12.925,10.973,20.592,14.374c0,0,2.209,0.944,2.894,1.205
			c0.393,0.152,2.472,0.901,2.472,0.901c1.139,0.393,2.29,0.749,3.455,1.068c58.552,16.459,94.35,64.941,94.35,142.031v14.882
			H380.875v-14.884c0-76.486,35.13-124.745,92.815-141.711c6.994-1.788,13.615-4.76,19.739-8.852L494.758,634.313z"/>
	</g>
</g>
</svg>
