<?xml version="1.0" encoding="utf-8"?>
<!-- Generator: Adobe Illustrator 17.0.0, SVG Export Plug-In . SVG Version: 6.00 Build 0)  -->
<!DOCTYPE svg PUBLIC "-//W3C//DTD SVG 1.1//EN" "http://www.w3.org/Graphics/SVG/1.1/DTD/svg11.dtd">
<svg version="1.1" id="图层_1" xmlns="http://www.w3.org/2000/svg" xmlns:xlink="http://www.w3.org/1999/xlink" x="0px" y="0px"
	 width="200px" height="200px" viewBox="0 0 200 200" enable-background="new 0 0 200 200" xml:space="preserve">
<g>
	<g transform="scale(0.1953125, 0.1953125)">
		<path fill="#FFAA0D" d="M933.6,831.468L721.173,617.26c-2.472-2.479-5.204-4.372-7.813-6.435
			c35.884-55.518,56.836-121.647,56.836-192.877c0-195.693-157.298-354.309-351.46-354.309
			c-194.054,0-351.46,158.616-351.46,354.309c0,195.721,157.407,354.301,351.46,354.301c70.631,0,136.303-21.179,191.458-57.361
			c2.009,2.692,3.852,5.369,6.283,7.827L828.931,936.95c14.506,14.579,33.396,21.849,52.314,21.849
			c18.932,0,37.836-7.268,52.328-21.814C962.434,907.822,962.434,860.608,933.6,831.468 M418.736,660.368
			c-132.562,0-240.467-108.767-240.467-242.42c0-133.634,107.907-242.427,240.467-242.427s240.466,108.794,240.466,242.427
			C659.202,551.601,551.297,660.368,418.736,660.368"/>
	</g>
</g>
</svg>
