<?xml version="1.0" encoding="utf-8"?>
<!-- Generator: Adobe Illustrator 16.0.0, SVG Export Plug-In . SVG Version: 6.00 Build 0)  -->
<!DOCTYPE svg PUBLIC "-//W3C//DTD SVG 1.1//EN" "http://www.w3.org/Graphics/SVG/1.1/DTD/svg11.dtd">
<svg version="1.1" id="图层_1" xmlns="http://www.w3.org/2000/svg" xmlns:xlink="http://www.w3.org/1999/xlink" x="0px" y="0px"
	 width="128px" height="128px" viewBox="0 0 128 128" enable-background="new 0 0 128 128" xml:space="preserve">
<g>
	<g transform="scale(0.125, 0.125)">
		<path fill="#41DB39" d="M554,216c-213.195,0-385.98,172.816-385.98,386.016C168.02,815.18,340.805,988,554,988
			c213.203,0,385.984-172.82,385.984-385.984C939.984,388.816,767.203,216,554,216z M782.719,456.457L521.375,804.164
			c-8.164,10.828-20.602,17.648-34.133,18.648c-1.195,0.094-2.359,0.125-3.52,0.125c-12.309,0-24.18-4.805-33.004-13.5
			L305.285,666.609c-18.559-18.25-18.84-48.047-0.598-66.609c18.246-18.586,48.055-18.805,66.609-0.625l107.086,105.18
			l229.031-304.75c15.633-20.785,45.156-24.965,65.977-9.359C794.141,406.148,798.359,435.672,782.719,456.457z"/>
	</g>
</g>
</svg>
