<?xml version="1.0" encoding="utf-8"?>
<!-- Generator: Adobe Illustrator 17.0.0, SVG Export Plug-In . SVG Version: 6.00 Build 0)  -->
<!DOCTYPE svg PUBLIC "-//W3C//DTD SVG 1.1//EN" "http://www.w3.org/Graphics/SVG/1.1/DTD/svg11.dtd">
<svg version="1.1" id="图层_1" xmlns="http://www.w3.org/2000/svg" xmlns:xlink="http://www.w3.org/1999/xlink" x="0px" y="0px"
	 width="200px" height="200px" viewBox="0 0 200 200" enable-background="new 0 0 200 200" xml:space="preserve">
<g>
	<g transform="scale(0.1953125, 0.1953125)">
		<path fill="#FFAA0D" d="M927.998,192H128c-17.664,0-32,14.304-32,32v32c0,17.696,14.336,32,32,32h799.998
			c17.696,0,32-14.304,32-32v-32C959.998,206.303,945.694,192,927.998,192z M927.998,479.999H128c-17.664,0-32,14.304-32,32v32
			c0,17.696,14.336,32,32,32h799.998c17.696,0,32-14.304,32-32v-32C959.998,494.303,945.694,479.999,927.998,479.999z
			 M927.998,767.998H128c-17.664,0-32,14.304-32,32v32c0,17.696,14.336,32,32,32h799.998c17.696,0,32-14.304,32-32v-32
			C959.998,782.302,945.694,767.998,927.998,767.998z"/>
	</g>
</g>
</svg>
