<?xml version="1.0" encoding="utf-8"?>
<!-- Generator: Adobe Illustrator 17.0.0, SVG Export Plug-In . SVG Version: 6.00 Build 0)  -->
<!DOCTYPE svg PUBLIC "-//W3C//DTD SVG 1.1//EN" "http://www.w3.org/Graphics/SVG/1.1/DTD/svg11.dtd">
<svg version="1.1" id="图层_1" xmlns="http://www.w3.org/2000/svg" xmlns:xlink="http://www.w3.org/1999/xlink" x="0px" y="0px"
	 width="200px" height="200px" viewBox="0 0 200 200" enable-background="new 0 0 200 200" xml:space="preserve">
<g>
	<g transform="scale(0.1953125, 0.1953125)">
		<path fill="#DBDBDB" d="M919.839,210.416H241.172l-11.765-97.064c-1.92-15.839-16.544-28.797-32.497-28.797h-6.45
			c-2.725,0-5.315,0.386-7.735,1.092H99.774c-19.144,0-34.809,14.358-34.809,31.908c0,17.55,15.664,31.908,34.809,31.908h69.548
			l66.407,547.874c1.92,15.839,16.544,28.797,32.497,28.797h6.45c2.695,0,5.26-0.378,7.657-1.069h548.819
			c19.145,0,34.809-14.358,34.809-31.909c0-17.549-15.664-31.908-34.809-31.908H295.818l-8.134-67.111h545.175
			c15.954,0,31.893-12.73,35.42-28.29l74.156-327.143c3.526-15.557-6.641-28.287-22.595-28.287L919.839,210.416z M294.586,865.715
			c0,42.808,34.703,77.511,77.511,77.511s77.511-34.703,77.511-77.511c0-42.808-34.703-77.511-77.511-77.511
			S294.586,822.907,294.586,865.715z M678.823,865.715c0,42.808,34.703,77.511,77.511,77.511c42.808,0,77.511-34.703,77.511-77.511
			c0-42.808-34.703-77.511-77.511-77.511C713.526,788.204,678.823,822.907,678.823,865.715z"/>
	</g>
</g>
</svg>
