<?xml version="1.0" encoding="UTF-8" standalone="no"?>
<svg width="47px" height="45px" viewBox="0 0 47 45" version="1.1" xmlns="http://www.w3.org/2000/svg" xmlns:xlink="http://www.w3.org/1999/xlink">
    <!-- Generator: Sketch 3.8.3 (29802) - http://www.bohemiancoding.com/sketch -->
    <title>star11</title>
    <desc>Created with Sketch.</desc>
    <defs></defs>
    <g id="Page-1" stroke="none" stroke-width="1" fill="none" fill-rule="evenodd">
        <g id="Artboard-2" transform="translate(-16.000000, -17.000000)" fill="#BBBBBB">
            <path d="M39.3335577,17 C42.2534328,21.5494319 44.2719024,27.0002692 46.927656,31.8150342 C52.3603199,32.4305099 57.5361316,33.3052609 62.8536966,34.037047 C63.014835,34.9905498 61.265333,35.9004362 60.2597329,36.8151688 C57.3447041,39.463653 54.3533466,43.085025 51.3704701,45.7032201 C52.334877,51.0353239 53.2374939,56.4304292 54.1485919,61.8158419 C49.1835927,59.4351139 44.3809434,56.8908244 39.704297,54.2217436 C34.7938183,56.782995 29.7924721,59.2497442 25.0746325,62 C25.5095848,56.9404986 26.8192881,51.1528458 27.6673846,45.8885897 C24.0629745,41.6541651 19.6322761,38.2448172 16,34.037047 C21.3648161,33.352512 26.5297238,32.4680685 31.9260406,31.8150342 C34.6132949,27.0935599 37.0546013,22.1285607 39.3335577,17" id="star11"></path>
        </g>
    </g>
</svg>