<?xml version="1.0" encoding="UTF-8" standalone="no"?>
<svg width="47px" height="45px" viewBox="0 0 47 45" version="1.1" xmlns="http://www.w3.org/2000/svg" xmlns:xlink="http://www.w3.org/1999/xlink">
    <!-- Generator: Sketch 3.8.3 (29802) - http://www.bohemiancoding.com/sketch -->
    <title>star11</title>
    <desc>Created with Sketch.</desc>
    <defs></defs>
    <g id="Page-1" stroke="none" stroke-width="1" fill="none" fill-rule="evenodd">
        <path d="M23.3335577,0 C26.2534328,4.54943191 28.2719024,10.0002692 30.927656,14.8150342 C36.3603199,15.4305099 41.5361316,16.3052609 46.8536966,17.037047 C47.014835,17.9905498 45.265333,18.9004362 44.2597329,19.8151688 C41.3447041,22.463653 38.3533466,26.085025 35.3704701,28.7032201 C36.334877,34.0353239 37.2374939,39.4304292 38.1485919,44.8158419 C33.1835927,42.4351139 28.3809434,39.8908244 23.704297,37.2217436 C18.7938183,39.782995 13.7924721,42.2497442 9.07463249,45 C9.50958484,39.9404986 10.8192881,34.1528458 11.6673846,28.8885897 C8.06297453,24.6541651 3.63227613,21.2448172 0,17.037047 C5.36481611,16.352512 10.5297238,15.4680685 15.9260406,14.8150342 C18.6132949,10.0935599 21.0546013,5.12856066 23.3335577,0" id="star11" fill="#FFB707"></path>
    </g>
</svg>