<?xml version="1.0" encoding="utf-8"?>
<!-- Generator: Adobe Illustrator 16.0.0, SVG Export Plug-In . SVG Version: 6.00 Build 0)  -->
<!DOCTYPE svg PUBLIC "-//W3C//DTD SVG 1.1//EN" "http://www.w3.org/Graphics/SVG/1.1/DTD/svg11.dtd">
<svg version="1.1" id="图层_1" xmlns="http://www.w3.org/2000/svg" xmlns:xlink="http://www.w3.org/1999/xlink" x="0px" y="0px"
	 width="241px" height="240px" viewBox="0 0 241 240" enable-background="new 0 0 241 240" xml:space="preserve">
<ellipse id="Oval-1-Copy-2" fill="#2AD2FF" cx="120.5" cy="120" rx="120" ry="120"/>
<g>
	<g transform="scale(0.1953125, 0.1953125)">
		<path fill="#FFFFFF" d="M980.513,293.619c-8.805-11.432-28.66-16.1-45.575-9.877l-216.134,79.982
			c-8.83,3.635-15.455,9.342-17.65,16.62l-14.705,55.052H273.269l99.982,572.296h469.781l100-572.296h-188.94l9.54-35.32
			l201.444-74.26C982.743,319.582,989.358,305.562,980.513,293.619L980.513,293.619z M868.038,483.169l-83.8,477.274H433.539
			l-83.815-477.274h324.224l-32.35,122.557c-9.55,1.568-18.38,3.633-28.662,6.245c-107.347,30.107-185.277,5.697-185.277,5.697
			l55.88,302.774h249.949l55.885-302.774c0,0-31.62-12.975-78.665-16.085l31.61-118.937L868.038,483.169L868.038,483.169z"/>
	</g>
</g>
</svg>
