<?xml version="1.0" encoding="utf-8"?>
<!-- Generator: Adobe Illustrator 16.0.0, SVG Export Plug-In . SVG Version: 6.00 Build 0)  -->
<!DOCTYPE svg PUBLIC "-//W3C//DTD SVG 1.1//EN" "http://www.w3.org/Graphics/SVG/1.1/DTD/svg11.dtd">
<svg version="1.1" id="图层_1" xmlns="http://www.w3.org/2000/svg" xmlns:xlink="http://www.w3.org/1999/xlink" x="0px" y="0px"
	 width="128px" height="128px" viewBox="0 0 128 128" enable-background="new 0 0 128 128" xml:space="preserve">
<g>
	<g transform="scale(0.125, 0.125)">
		<path fill="#FFAA0D" d="M220.359,203.512c85.664,0,171.328,0,256.992,0c26.133,2.59,19.836,48.59,19.836,78.477
			c0,53.684,0,89.066,0,142.297c0,30.926,5.824,68.832-14.66,77.621c-13.34,5.719-49.145,1.719-66.406,1.719
			c-47.391,0-85.91,0-136.258,0c-31.496,0-74.508,7.516-79.34-19.836c0-86.813,0-173.625,0-260.445
			C204.047,213.648,210.242,206.617,220.359,203.512z M255.715,262.156c0,61.805,0,123.609,0,185.414c61.805,0,123.609,0,185.414,0
			c0-62.672,0-125.336,0-188.004c-61.512,0-123.031,0-184.551,0C255.574,259.711,255.645,260.93,255.715,262.156z M565.313,203.512
			c85.664,0,171.328,0,257,0c10.477,3.887,17.68,11.059,19.828,23.285c0,84.516,0,169.027,0,253.547
			c-2.352,10.531-7.852,19.531-18.109,22.422c-16.766,4.719-44.617,0.859-64.672,0.859c-47.273,0-86.039,0-131.945,0
			c-19.898,0-49.391,4.188-65.547-0.859c-22.805-7.141-16.383-51.652-16.383-82.793c0-41.363,0-89.648,0-132.809
			C545.484,251.211,537.586,208.535,565.313,203.512z M600.672,262.156c0,61.805,0,123.609,0,185.414c61.805,0,123.617,0,185.414,0
			c0-62.672,0-125.336,0-188.004c-61.516,0-123.031,0-184.547,0C600.531,259.711,600.602,260.93,600.672,262.156z M340.23,316.484
			c25.824-4.875,46.133,12.574,46.57,36.223c0.578,31.18-31.27,48.313-56.055,35.359
			C302.387,373.242,304.254,323.277,340.23,316.484z M685.195,316.484c60.82-11.363,59.656,84.965,0,75.027
			C647.219,385.188,645.992,323.809,685.195,316.484z M475.629,853.758c-84.805,0-169.605,0-254.41,0
			c-10.559-3.234-17.695-9.898-20.695-20.695c0-86.531,0-173.063,0-259.578c2.512-7.602,8.309-16.469,17.25-18.977
			c16.879-4.75,44.453-0.867,64.68-0.867c46.477,0,88.582,0,131.945,0c19.5,0,47.879-4.352,65.543,0.867
			c23.891,7.055,17.246,50.844,17.246,81.93c0,47.773,0,88.523,0,137.117C497.188,807.094,504.41,850.758,475.629,853.758z
			 M255.715,612.289c0,61.805,0,123.602,0,185.414c61.805,0,123.609,0,185.414,0c0-62.664,0-125.336,0-188.008
			c-61.512,0-123.031,0-184.551,0C255.574,609.844,255.645,611.063,255.715,612.289z M842.141,576.93c0,24.148,0,48.297,0,72.445
			c-2.008,24.43-0.281,52.602-0.859,78.477c-61.227,0-122.461,0-183.688,0c0-14.094,0-28.172,0-42.258
			c-17.25-2.016-38.234-0.289-56.922-0.867c-2.016,54.617-0.289,112.977-0.859,169.031c-11.211,0-22.422,0-33.633,0
			c-28.922-5.797-20.695-49.188-20.695-83.648c0-48.07,0-87.633,0-133.672c0-20.102-4.07-50.234,0.859-66.406
			c5.883-19.297,31.391-16.391,56.922-16.391c43.148,0,81.594,0,125.039,0c0,38.234,0,76.469,0,114.703c19.258,0,38.523,0,57.781,0
			c0.578-37.945-1.148-78.188,0.867-114.703C814.758,551.992,840.508,552.406,842.141,576.93z M344.543,665.758
			c27.574-3.055,50.367,23.445,39.672,52.609c-14.828,40.406-85.719,25.227-72.441-25.875
			C315.441,678.359,326.043,667.805,344.543,665.758z M719.68,853.758c-20.695,0-41.391,0-62.086,0
			c0.57-22.133-1.156-46.57,0.859-67.266c20.406,0,40.82,0,61.227,0C719.68,808.914,719.68,831.336,719.68,853.758z
			 M842.141,786.492c0,14.656,0,29.313,0,43.984c-2.398,12.258-9.57,19.75-20.695,23.281c-14.664,0-29.32,0-43.984,0
			c0.578-22.133-1.141-46.57,0.867-67.266C799.594,786.492,820.875,786.492,842.141,786.492z"/>
	</g>
</g>
</svg>
