<?xml version="1.0" encoding="utf-8"?>
<!-- Generator: Adobe Illustrator 17.0.0, SVG Export Plug-In . SVG Version: 6.00 Build 0)  -->
<!DOCTYPE svg PUBLIC "-//W3C//DTD SVG 1.1//EN" "http://www.w3.org/Graphics/SVG/1.1/DTD/svg11.dtd">
<svg version="1.1" id="图层_1" xmlns="http://www.w3.org/2000/svg" xmlns:xlink="http://www.w3.org/1999/xlink" x="0px" y="0px"
	 width="200px" height="200px" viewBox="0 0 200 200" enable-background="new 0 0 200 200" xml:space="preserve">
<g>
	<g transform="scale(0.1953125, 0.1953125)">
		<path fill="#FFAA0D" d="M863.83,756.701c0,55.846-45.272,101.117-101.118,101.117h-504.04
			c-55.846,0-101.119-45.271-101.119-101.117l0-496.91c0-55.846,45.273-101.118,101.119-101.118h301.68V65.782h-368.65
			c-70.686,0-127.989,57.303-127.989,127.989v628.951c0,70.686,57.303,127.989,127.989,127.989h637.979
			c70.689,0,127.989-57.303,127.989-127.989v-264.81H863.83V756.701z M796.937,148.909l42.242-40.751l119.118,123.476
			l-42.242,40.751L796.937,148.909z M344.86,585.021l-13.308,134.136l132.431-10.664L344.86,585.021z M331.549,719.161l0.003-0.005
			h-0.008L331.549,719.161z M506.658,667.326l-119.12-123.478L764.468,180.22l119.12,123.478L506.658,667.326L506.658,667.326z"/>
	</g>
</g>
</svg>
