<?xml version="1.0" encoding="UTF-8" standalone="no"?>
<svg width="109px" height="110px" viewBox="0 0 109 110" version="1.1" xmlns="http://www.w3.org/2000/svg" xmlns:xlink="http://www.w3.org/1999/xlink">
    <!-- Generator: Sketch 3.8.3 (29802) - http://www.bohemiancoding.com/sketch -->
    <title>Page 1 Copy 2@2x</title>
    <desc>Created with Sketch.</desc>
    <defs>
        <polygon id="path-1" points="0 105.090938 103.512873 105.090938 103.512873 0.998570602 0 0.998570602"></polygon>
    </defs>
    <g id="Page-1" stroke="none" stroke-width="1" fill="none" fill-rule="evenodd">
        <g id="Page-1-Copy-2" transform="translate(3.000000, 2.000000)">
            <path d="M43.6787521,24.2463067 C43.8386032,20.5370178 44.6155539,13.472216 45.8869276,9.51635587 C47.2995651,5.11380869 56.481709,-2.34765113 62.0504748,8.06551646 C62.0504748,8.06551646 73.3181178,20.2725791 64.4296538,38.9369491 L93.1247828,38.9369491 C93.1247828,38.9369491 107.693537,47.2882095 96.213998,58.3195919 C96.213998,58.3195919 109.020672,67.0353488 95.3329583,76.5694364 C95.3329583,76.5694364 97.9797949,87.6008188 88.2697707,89.2982294 C88.2697707,89.2982294 93.3441134,99.7149705 82.0876228,103.302761 L44.5597919,103.302761 C44.5597919,103.302761 32.4222616,103.531464 27.78658,96.6560579 L10.128611,96.6560579 L2.18066624,48.9820466 L21.1620536,48.9820466 C21.1620536,48.9820466 42.7977124,44.7546007 43.6787521,24.2463067 L43.6787521,24.2463067 Z" id="Stroke-1" stroke="#A8A8A8" stroke-width="8"></path>
            <mask id="mask-2" fill="white">
                <use xlink:href="#path-1"></use>
            </mask>
            <g id="Clip-4"></g>
            <polygon id="Fill-3" fill="#A8A8A8" mask="url(#mask-2)" points="2.18215322 96.6539138 22.0482977 96.6539138 22.0482977 48.9799025 2.18215322 48.9799025"></polygon>
        </g>
    </g>
</svg>