<?xml version="1.0" encoding="utf-8"?>
<!-- Generator: Adobe Illustrator 16.0.0, SVG Export Plug-In . SVG Version: 6.00 Build 0)  -->
<!DOCTYPE svg PUBLIC "-//W3C//DTD SVG 1.1//EN" "http://www.w3.org/Graphics/SVG/1.1/DTD/svg11.dtd">
<svg version="1.1" id="图层_1" xmlns="http://www.w3.org/2000/svg" xmlns:xlink="http://www.w3.org/1999/xlink" x="0px" y="0px"
	 width="841.89px" height="595.28px" viewBox="0 0 841.89 595.28" enable-background="new 0 0 841.89 595.28" xml:space="preserve">
<g>
	<path fill="#FFAA0D" d="M451.961,433.768c-25.891-34.286-50.368-67.929-68.343-106.88c-14.094-30.542-12.922-59.309,4.41-87.494
		c24.848-40.409,78.613-48.725,112.994-17.417c18.645,16.979,28.506,38.746,29.19,65.542c0.304,11.855-3.021,22.656-7.364,33.142
		C505.433,362.693,479.181,397.963,451.961,433.768L451.961,433.768z M451.764,325.712c21.501,0.148,39.265-19.213,39.625-43.189
		c0.357-23.787-17.316-43.397-39.569-43.901c-20.949-0.474-39.319,19.509-39.292,42.744
		C412.558,305.843,430.003,325.562,451.764,325.712L451.764,325.712z M451.764,325.712"/>
</g>
</svg>
