<?xml version="1.0" encoding="utf-8"?>
<!-- Generator: Adobe Illustrator 16.0.0, SVG Export Plug-In . SVG Version: 6.00 Build 0)  -->
<!DOCTYPE svg PUBLIC "-//W3C//DTD SVG 1.1//EN" "http://www.w3.org/Graphics/SVG/1.1/DTD/svg11.dtd">
<svg version="1.1" id="图层_1" xmlns="http://www.w3.org/2000/svg" xmlns:xlink="http://www.w3.org/1999/xlink" x="0px" y="0px"
	 width="841.89px" height="595.28px" viewBox="0 0 841.89 595.28" enable-background="new 0 0 841.89 595.28" xml:space="preserve">
<g>
	<path fill="#FFFFFF" d="M519.88,216.043l-0.076,0.297c-21.625-9.871-29.956-32.247-20.434-42.121
		c9.521-9.875,20.434,4.408,20.434,4.408h0.076c0,0,10.908-14.283,20.436-4.408C549.838,184.088,541.501,206.162,519.88,216.043
		L519.88,216.043z M437.411,315.303c-8.939,31.792,24.374,49.254,32.16,54.076c10.258,6.364,49.405-9.595,49.405,57.691h-88.901
		h-13.727h-89.094c0-69.364,34.003-53.702,49.41-57.538c8.757-2.187,41.104-22.137,32.163-53.927
		c-46.63,5.778-63.413-12.481-60.858-11.761c2.554,0.726,20.716-14.12,20.716-76.982c0-62.86,54.208-58.591,54.208-58.591h0.536
		c0,0,54.152-4.265,54.152,58.591c0,62.857,18.14,77.105,20.694,76.385C500.836,302.521,484.033,321.081,437.411,315.303
		L437.411,315.303z M437.411,315.303"/>
</g>
</svg>
