<?xml version="1.0" encoding="utf-8"?>
<!-- Generator: Adobe Illustrator 16.0.0, SVG Export Plug-In . SVG Version: 6.00 Build 0)  -->
<!DOCTYPE svg PUBLIC "-//W3C//DTD SVG 1.1//EN" "http://www.w3.org/Graphics/SVG/1.1/DTD/svg11.dtd">
<svg version="1.1" id="图层_1" xmlns="http://www.w3.org/2000/svg" xmlns:xlink="http://www.w3.org/1999/xlink" x="0px" y="0px"
	 width="841.89px" height="595.28px" viewBox="0 0 841.89 595.28" enable-background="new 0 0 841.89 595.28" xml:space="preserve">
<g>
	<path fill="#FFFFFF" d="M570.972,411.879l-47.336-47.335c12.678-17.57,20.149-39.147,20.149-62.469
		c0-59.023-47.849-106.875-106.878-106.875c-59.025,0-106.876,47.852-106.876,106.875c0,59.025,47.852,106.878,106.876,106.878
		c23.323,0,44.899-7.472,62.47-20.15l47.335,47.335c3.35,3.349,8.781,3.349,12.13,0l12.13-12.129
		C574.322,420.66,574.322,415.23,570.972,411.879L570.972,411.879z M360.569,302.075c0-42.161,34.179-76.34,76.34-76.34
		c42.162,0,76.341,34.179,76.341,76.34c0,42.164-34.179,76.343-76.341,76.343C394.748,378.418,360.569,344.238,360.569,302.075
		L360.569,302.075z M360.569,302.075"/>
</g>
</svg>
