<?xml version="1.0" encoding="utf-8"?>
<!-- Generator: Adobe Illustrator 16.0.0, SVG Export Plug-In . SVG Version: 6.00 Build 0)  -->
<!DOCTYPE svg PUBLIC "-//W3C//DTD SVG 1.1//EN" "http://www.w3.org/Graphics/SVG/1.1/DTD/svg11.dtd">
<svg version="1.1" id="图层_1" xmlns="http://www.w3.org/2000/svg" xmlns:xlink="http://www.w3.org/1999/xlink" x="0px" y="0px"
	 width="841.89px" height="595.28px" viewBox="0 0 841.89 595.28" enable-background="new 0 0 841.89 595.28" xml:space="preserve">
<g>
	<path fill="#FFFFFF" d="M562.407,276.195c0.093,1.146,0.007,2.321-0.304,3.495l-22.38,98.784c-0.314,1.183-0.832,2.257-1.488,3.213
		c-2.396,4.785-6.043,9.019-10.888,12.101c-5.105,3.245-10.807,4.759-16.438,4.749v-0.063l-143.756-0.061
		c-0.503,0.075-1.012,0.126-1.536,0.126s-1.035-0.051-1.542-0.127l-38.238-0.017c-0.538,0.087-1.084,0.144-1.646,0.144
		c-5.721,0-10.357-4.637-10.357-10.356l0.093-124.339c0-5.722,4.639-10.358,10.36-10.358c0.427,0,0.846,0.034,1.26,0.086
		l34.372-0.08v-0.196c31.626-2.263,56.686-28.189,57.579-60.175c-0.079-0.899-0.137-1.805-0.137-2.726
		c0-16.64,13.489-30.13,30.131-30.13c14.3,0,26.246,9.971,29.333,23.333l0.152-0.019c1.695,7.628,2.621,15.546,2.621,23.684
		c0,12.547-2.144,24.589-6.062,35.797l57.81,0.063c0.531,0,1.052,0.052,1.563,0.131c9.87,0.388,19.377,5.469,24.977,14.497
		C561.45,263.492,562.872,269.942,562.407,276.195 M334.557,377.688l20.713,0.009l0.078-103.479l-20.693,0.046L334.557,377.688
		L334.557,377.688L334.557,377.688z M540.406,268.573c-1.99-3.21-5.507-4.897-9.031-4.708v-0.031h-0.026l-73.074-0.076
		c-5.718,0-10.355-4.639-10.355-10.358c0-1.646,0.395-3.199,1.08-4.582l-0.109-0.09c4.136-7.703,7.146-16.1,8.854-24.957
		l0.129,0.003c0,0,1.377-5.592,1.359-16.319c-0.015-8.498-1.563-16.256-1.563-16.256h-0.079c0.008-0.15,0.023-0.298,0.023-0.45
		c0-5.348-4.337-9.685-9.685-9.685c-5.351,0-9.687,4.336-9.687,9.685c0,0.223,0.019,0.444,0.033,0.664l-0.135,0.002
		c0,0,0.165,8.086-1.449,16.471c-0.687,3.559-1.648,6.876-2.525,9.503c-0.019-0.008-0.034-0.016-0.051-0.025
		c-8.718,26.652-30.638,47.311-58.032,54.27l-0.1,106.069l134.975,0.055c0.456,0,0.902,0.039,1.342,0.099
		c1.348-0.18,2.678-0.645,3.899-1.422c1.735-1.103,2.995-2.666,3.733-4.431l0.027,0.015l21.548-95.108l-0.084-0.024
		C542.286,274.196,542.013,271.162,540.406,268.573"/>
</g>
</svg>
