<?xml version="1.0" encoding="utf-8"?>
<!-- Generator: Adobe Illustrator 16.0.0, SVG Export Plug-In . SVG Version: 6.00 Build 0)  -->
<!DOCTYPE svg PUBLIC "-//W3C//DTD SVG 1.1//EN" "http://www.w3.org/Graphics/SVG/1.1/DTD/svg11.dtd">
<svg version="1.1" id="图层_1" xmlns="http://www.w3.org/2000/svg" xmlns:xlink="http://www.w3.org/1999/xlink" x="0px" y="0px"
	 width="841.89px" height="595.28px" viewBox="0 0 841.89 595.28" enable-background="new 0 0 841.89 595.28" xml:space="preserve">
<g>
	<path fill="#FFFFFF" d="M374.039,168.109c-4.479,0-8.101,3.623-8.101,8.098v79.299c0,11.395-6.781,20.983-16.186,24.587V176.207
		c0-4.475-3.626-8.098-8.101-8.098c-4.474,0-8.093,3.623-8.093,8.098v103.886c-9.41-3.604-16.191-13.193-16.191-24.585v-79.301
		c0-4.475-3.62-8.098-8.095-8.098c-4.474,0-8.094,3.623-8.094,8.098v81.206c0,19.583,13.905,35.917,32.38,39.67v121.986
		c0,4.475,3.62,8.096,8.094,8.096c4.475,0,8.1-3.621,8.1-8.096V297.083c18.474-3.756,32.38-20.087,32.38-39.673v-81.203
		C382.133,171.732,378.513,168.109,374.039,168.109L374.039,168.109L374.039,168.109z M540.709,232.734
		c0-35.847-25.423-64.909-56.791-64.909s-56.791,29.063-56.791,64.909c0,32.745,21.239,59.753,48.822,64.193
		c-0.021,0.256-0.144,0.455-0.144,0.713v121.703c0,4.479,3.631,8.111,8.112,8.111c4.482,0,8.115-3.633,8.115-8.111V297.64
		c0-0.258-0.125-0.457-0.144-0.713C519.466,292.488,540.709,265.479,540.709,232.734L540.709,232.734L540.709,232.734z
		 M483.918,281.41c-22.399,0-40.565-21.785-40.565-48.675c0-26.885,18.166-48.68,40.565-48.68s40.567,21.795,40.567,48.68
		C524.485,259.625,506.318,281.41,483.918,281.41L483.918,281.41L483.918,281.41z M483.918,281.41"/>
</g>
</svg>
