<?xml version="1.0" standalone="no"?><!DOCTYPE svg PUBLIC "-//W3C//DTD SVG 1.1//EN" "http://www.w3.org/Graphics/SVG/1.1/DTD/svg11.dtd"><svg width="200" height="200" viewBox="0 0 200 200" version="1.1" xmlns="http://www.w3.org/2000/svg" xmlns:xlink="http://www.w3.org/1999/xlink"><defs><style type="text/css"><![CDATA[
@font-face { font-family: ifont; src: url("//at.alicdn.com/t/font_1442373896_4754455.eot?#iefix") format("embedded-opentype"), url("//at.alicdn.com/t/font_1442373896_4754455.woff") format("woff"), url("//at.alicdn.com/t/font_1442373896_4754455.ttf") format("truetype"), url("//at.alicdn.com/t/font_1442373896_4754455.svg#ifont") format("svg"); }

]]></style></defs><g class="transform-group"><g transform="scale(0.1953125, 0.1953125)"><path d="M463.988422 959.653486C460.490926 959.653486 456.975219 958.464914 454.086894 956.028342 447.572683 950.532571 446.727675 940.776229 452.201106 934.234514 458.122536 927.156114 463.971122 919.858286 469.58296 912.543086 475.203902 905.216 480.743805 897.669486 486.048781 890.109258 491.363773 882.5344 496.585886 874.7456 501.570341 866.958629 506.567544 859.150629 511.463675 851.1296 516.120325 843.120458 520.793366 835.0848 525.350765 826.843429 529.669594 818.626742 534.011187 810.363429 538.22257 801.910858 542.189008 793.501258 546.172747 785.055086 550.029918 776.399542 553.652163 767.773258 557.284422 759.118629 560.776456 750.271086 564.027187 741.473829 567.293398 732.638171 570.410277 723.606858 573.288586 714.629486 576.17691 705.626514 578.909528 696.419658 581.40813 687.264914 583.915837 678.079086 586.25509 668.709486 588.356683 659.413942 590.471934 650.068114 592.405074 640.542171 594.106016 631.101258 595.816976 621.608229 597.338536 611.936914 598.627902 602.353371 599.924554 592.728686 601.022699 582.921142 601.894114 573.197714 602.767349 563.441371 603.434797 553.504914 603.873691 543.662629 604.315317 533.769142 604.541138 523.712914 604.541138 513.775542 604.541138 513.705142 604.541138 513.635658 604.542048 513.567086 604.541138 513.496686 604.541138 513.429029 604.541138 513.358629 604.541138 510.174171 604.379968 506.9696 604.06309 503.832686 603.751675 500.736 603.28 497.630171 602.662634 494.597486 602.054374 491.606858 601.288586 488.613486 600.388032 485.7024 599.497496 482.821486 598.452163 479.953371 597.281171 477.1712 596.121106 474.416458 594.812618 471.685486 593.390309 469.053258 591.978016 466.440229 590.419122 463.863771 588.757333 461.392458 587.104651 458.935771 585.310829 456.526629 583.431414 454.24 581.553821 451.9552 579.544195 449.7344 577.456261 447.637942 575.368325 445.541486 573.156554 443.523658 570.881952 441.639314 568.599155 439.749486 566.202536 437.949258 563.754926 436.288914 561.297301 434.623086 558.731317 433.058742 556.12709 431.638858 553.507382 430.209829 550.788422 428.895086 548.043058 427.7312 545.276747 426.558171 542.418472 425.507658 539.548358 424.612571 536.651837 423.709258 533.668813 422.940342 530.683968 422.326858 527.66361 421.707886 524.570406 421.233371 521.492683 420.920686 515.236163 420.282514 508.763837 420.282514 502.51096 420.920686 499.431414 421.232458 496.338211 421.706971 493.316032 422.326858 490.333918 422.939429 487.352715 423.707429 484.454374 424.611658 481.584261 425.506742 478.726894 426.556342 475.959675 427.730286 473.21613 428.895086 470.495349 430.208914 467.874731 431.637942 465.272325 433.056 462.706341 434.621258 460.245074 436.289829 457.798374 437.949258 455.399024 439.7504 453.121691 441.637486 450.846179 443.522742 448.633496 445.541486 446.546472 447.637029 444.459446 449.732571 442.44891 451.954286 440.571317 454.239086 438.690082 456.527542 436.898082 458.935771 435.244488 461.393371 433.58361 463.862858 432.025626 466.440229 430.612422 469.053258 429.188293 471.688229 427.878894 474.418286 426.720651 477.1712 425.55239 479.949714 424.506146 482.818742 423.614699 485.699658 422.713235 488.613486 421.947446 491.607771 421.339187 494.597486 420.722731 497.632 420.249235 500.738742 419.937821 503.829942 419.620942 506.972342 419.459773 510.178742 419.459773 513.358629 419.459773 513.429029 419.459773 513.496686 419.458862 513.567086 419.459773 513.637486 419.459773 513.705142 419.459773 513.775542 419.459773 522.549029 419.211187 531.421258 418.722211 540.149029 418.238699 548.797258 417.502048 557.541486 416.536845 566.1376 415.578926 574.665142 414.368781 583.265829 412.942829 591.700114 411.525074 600.082286 409.854179 608.5248 407.977496 616.794514 406.113562 625.009371 403.996488 633.281829 401.682731 641.380571 399.381723 649.432686 396.829398 657.520458 394.09587 665.417142 391.380554 673.264458 388.408456 681.154742 385.261528 688.862171 382.130992 696.527542 378.750048 704.202971 375.213398 711.677258 371.684942 719.135086 367.911544 726.584686 363.996098 733.822171 360.088845 741.045029 355.934829 748.256914 351.64787 755.256686 347.37639 762.232686 342.854504 769.192229 338.209691 775.941486 333.579446 782.667886 328.705171 789.362286 323.718894 795.839086 318.738992 802.307658 313.524163 808.724114 308.215544 814.909258 302.913301 821.090742 297.370667 827.214629 291.742438 833.111771 286.114211 839.008914 280.258341 844.829258 274.33509 850.409142 268.410016 855.9936 262.253659 861.495771 256.035382 866.763886 249.533918 872.272458 239.814504 871.444114 234.326504 864.9152 228.839414 858.384458 229.665301 848.6272 236.167675 843.1168 241.970731 838.200686 247.718243 833.065142 253.24904 827.853714 258.777106 822.6432 264.244163 817.212342 269.497235 811.706514 274.748488 806.203429 279.922341 800.487314 284.872195 794.717258 289.825691 788.943542 294.693594 782.9568 299.340227 776.919771 303.992325 770.876342 308.541528 764.630858 312.861269 758.353371 317.196488 752.054858 321.415155 745.562514 325.400715 739.0528 329.399024 732.523886 333.274406 725.796571 336.919414 719.057371 340.571707 712.305371 344.091058 705.3568 347.381854 698.403658 350.679024 691.434058 353.832325 684.274286 356.75161 677.127314 359.685464 669.941029 362.458146 662.5856 364.989528 655.265829 367.538211 647.902171 369.917528 640.361142 372.063739 632.853029 374.220878 625.302858 376.195902 617.589029 377.934179 609.927314 379.683382 602.2144 381.242277 594.338742 382.565333 586.520686 383.895675 578.652342 385.024781 570.628571 385.91896 562.672458 386.820422 554.650514 387.506082 546.487771 387.958634 538.413714 388.415739 530.262858 388.647024 521.973942 388.647024 513.778286 388.647024 513.707886 388.647024 513.6384 388.647934 513.569829 388.647024 513.499429 388.647024 513.431771 388.647024 513.361371 388.647024 509.1456 388.861008 504.8896 389.282602 500.712229 389.698731 496.592458 390.327024 492.452571 391.150179 488.407771 391.963317 484.415086 392.985886 480.416914 394.189659 476.5248 395.380683 472.675658 396.777496 468.842971 398.338211 465.130971 399.884358 461.456458 401.631739 457.812114 403.533008 454.296686 405.416976 450.811429 407.495805 447.374629 409.709398 444.0832 411.912066 440.809142 414.298667 437.602742 416.804554 434.551771 419.305886 431.509942 421.980227 428.553142 424.759285 425.763658 427.538341 422.973258 430.483122 420.286171 433.512586 417.776458 436.546602 415.262171 439.739058 412.864914 443.002536 410.653258 446.283317 408.4288 449.705235 406.3424 453.175414 404.450742 456.673821 402.544458 460.303349 400.790858 463.96657 399.234742 467.66348 397.666742 471.480586 396.265142 475.313171 395.069258 479.184 393.863314 483.165008 392.834742 487.146016 392.017371 491.179837 391.189942 495.302894 390.559086 499.403187 390.142171 507.711219 389.295542 516.28787 389.295542 524.601366 390.142171 528.698926 390.56 532.821984 391.189942 536.853984 392.016458 540.842277 392.835658 544.823285 393.8624 548.692293 395.069258 552.523968 396.265142 556.341984 397.667658 560.037074 399.234742 563.703024 400.789029 567.332554 402.543542 570.828227 404.450742 574.298406 406.3424 577.722146 408.4288 580.997464 410.651429 584.258211 412.863086 587.450667 415.260342 590.490146 417.775542 593.51961 420.285258 596.46439 422.971429 599.243446 425.762742 602.023414 428.553142 604.698667 431.509942 607.198179 434.551771 609.702243 437.597258 612.089757 440.803658 614.293333 444.080458 616.508747 447.375542 618.586667 450.811429 620.469723 454.295771 622.368261 457.807542 624.114731 461.451886 625.66452 465.130058 627.227968 468.846629 628.624781 472.679314 629.813984 476.523886 631.017757 480.410514 632.040325 484.408686 632.854374 488.405029 633.676618 492.450742 634.305821 496.590629 634.72104 500.7104 635.143544 504.877714 635.357528 509.135542 635.357528 513.359542 635.357528 513.429942 635.357528 513.4976 635.356618 513.568 635.357528 513.6384 635.357528 513.706058 635.357528 513.776458 635.357528 524.174629 635.123512 534.697142 634.660032 545.050514 634.198374 555.350858 633.502699 565.752686 632.586667 575.968914 631.675187 586.148571 630.524227 596.420571 629.16748 606.497829 627.816195 616.534858 626.222699 626.666058 624.430699 636.608 622.649626 646.496914 620.62452 656.475429 618.409106 666.268342 616.205528 676.0064 613.756098 685.824914 611.128195 695.446858 608.509398 705.0368 605.64657 714.6816 602.621659 724.116114 599.604942 733.521371 596.340554 742.984229 592.916813 752.242286 589.510374 761.456458 585.852618 770.728229 582.045528 779.793371 578.253008 788.830171 574.210992 797.898058 570.037854 806.743771 565.883837 815.552 561.471219 824.405942 556.923837 833.0624 552.40104 841.6704 547.626926 850.304 542.732618 858.72 537.85652 867.105829 532.729106 875.505371 527.494243 883.685486 522.274862 891.84 516.804163 899.997258 511.239675 907.928686 505.684293 915.845486 499.882146 923.748571 493.996227 931.422171 488.120325 939.082058 481.996747 946.722742 475.796683 954.132114 472.747187 957.774629 468.383739 959.651658 463.991155 959.651658L463.988422 959.653486ZM604.03213 952.427886C601.170211 952.427886 598.275512 951.626971 595.690406 949.953829 588.541528 945.320229 586.487285 935.746742 591.102048 928.568686 595.882536 921.133714 600.600195 913.505829 605.122992 905.9008 609.651253 898.287542 614.108488 890.486858 618.369952 882.717258 622.633235 874.944 626.822765 866.975086 630.825626 859.030858 634.836683 851.068342 638.755773 842.935771 642.470894 834.865371 646.213333 826.735542 649.852878 818.449371 653.287544 810.235429 656.742243 801.976686 660.097691 793.540571 663.259187 785.157486 666.427058 776.758858 669.492032 768.176458 672.366699 759.653486 675.251382 751.0976 678.020422 742.378058 680.593691 733.738058 683.180618 725.058742 685.643707 716.209371 687.919219 707.433142 690.20839 698.603886 692.363707 689.627429 694.325984 680.752458 696.301008 671.829029 698.142179 662.731886 699.798504 653.714286 701.341008 645.312914 709.37496 639.761371 717.74309 641.306514 726.110309 642.856229 731.642016 650.922971 730.100422 659.324342 728.377626 668.709486 726.460878 678.176914 724.405723 687.461486 722.363317 696.696686 720.118765 706.038858 717.737626 715.2256 715.369235 724.3584 712.804163 733.570742 710.11343 742.6048 707.435446 751.5968 704.554406 760.671086 701.552261 769.5744 698.56104 778.445714 695.372227 787.376458 692.074146 796.118858 688.781528 804.842058 685.290406 813.623771 681.69639 822.215314 678.122406 830.761142 674.335349 839.3856 670.440845 847.8464 666.571837 856.245942 662.49613 864.707658 658.322082 872.994742 654.157138 881.261714 649.796422 889.554286 645.36013 897.641142 640.92657 905.728 636.28813 913.8432 631.577757 921.764571 626.871934 929.678629 621.963058 937.6128 616.989528 945.348571 614.042926 949.931886 609.08852 952.429714 604.031219 952.429714L604.03213 952.427886ZM344.450731 928.572342C340.444227 928.572342 336.441366 927.012571 333.421918 923.905829 327.480456 917.790171 327.602472 907.996342 333.690536 902.031542 339.944325 895.904914 346.133464 889.540571 352.086765 883.1168 358.045528 876.685714 363.922341 870.025142 369.554211 863.323429 375.187902 856.617142 380.739642 849.674058 386.056456 842.685258 391.368715 835.701942 396.583544 828.485486 401.557074 821.239771 406.539707 813.981258 411.405789 806.506971 416.020554 799.022629 420.655349 791.509942 425.159934 783.786058 429.413203 776.069486 433.679219 768.330058 437.811382 760.372114 441.697691 752.415086 445.595837 744.434286 449.344651 736.253258 452.839414 728.096 456.348747 719.907658 459.701464 711.5136 462.803773 703.146058 465.917008 694.751086 468.860878 686.1568 471.554341 677.601829 474.261464 669.002971 476.785562 660.221258 479.05652 651.498058 481.341138 642.7264 483.432715 633.767314 485.274797 624.867658 487.127805 615.909486 488.775934 606.784914 490.172747 597.748114 491.579578 588.645486 492.770602 579.3664 493.714862 570.1696 494.664586 560.919771 495.389398 551.498971 495.869269 542.167771 496.350048 532.775314 496.594082 523.222858 496.594082 513.777371 496.594082 505.233371 503.490731 498.309486 511.99909 498.309486 520.507446 498.309486 527.404098 505.234286 527.404098 513.777371 527.404098 523.749486 527.145496 533.835886 526.637398 543.7568 526.131122 553.613714 525.366243 563.567542 524.362797 573.341258 523.365723 583.060114 522.105496 592.867658 520.617626 602.4896 519.141594 612.043886 517.399675 621.690514 515.44013 631.1616 513.491512 640.573258 511.277918 650.047086 508.86491 659.322514 506.463739 668.544914 503.794862 677.833142 500.932942 686.926629 498.085594 695.971658 494.971446 705.0624 491.679739 713.940114 488.39896 722.787658 484.853203 731.664458 481.143544 740.323658 477.447544 748.948114 473.483837 757.6 469.362602 766.038858 465.253203 774.452114 460.882472 782.866286 456.373333 791.049142 451.877854 799.208229 447.115578 807.371886 442.215805 815.313371 437.337886 823.224686 432.194082 831.125942 426.926438 838.7968 421.669723 846.456686 416.157138 854.081829 410.54439 861.462858 404.926179 868.847542 399.060293 876.1856 393.105171 883.272229 387.154602 890.354286 380.94452 897.392458 374.647024 904.189258 368.354992 910.979658 361.815285 917.703314 355.207285 924.175542 352.212422 927.112229 348.330667 928.574171 344.451642 928.574171L344.450731 928.572342ZM764.36696 880.628114C762.343675 880.628114 760.286699 880.226742 758.308032 879.374629 750.487155 876.010971 746.862179 866.919314 750.211253 859.0656 753.018536 852.484571 755.788488 845.759086 758.445528 839.0784 761.109854 832.374858 763.718634 825.567086 766.198114 818.848914 768.699446 812.0768 771.143414 805.189486 773.466277 798.378058 775.797333 791.5456 778.076488 784.5824 780.24091 777.6768 782.403512 770.782171 784.514211 763.741258 786.515642 756.751542 788.517074 749.756342 790.457496 742.641371 792.281366 735.6096 794.106146 728.576 795.871739 721.391542 797.531707 714.256458 799.198048 707.092114 800.788813 699.840914 802.260293 692.704 803.741789 685.525029 805.154992 678.207086 806.461659 670.951314 807.771058 663.676342 809.004878 656.2944 810.123968 649.013942 811.253984 641.6832 812.30296 634.24 813.244488 626.890971 814.189659 619.509029 815.052878 612.004571 815.812293 604.590629 816.574438 597.141029 817.250992 589.581714 817.821918 582.123886 818.394667 574.6432 818.881821 567.029029 819.266992 559.4944 819.652163 551.949714 819.946277 544.284342 820.138406 536.711314 820.333269 529.101714 820.43161 521.386058 820.43161 513.778286 820.43161 513.707886 820.43252 513.6384 820.43252 513.569829 820.43252 513.501258 820.43161 513.431771 820.43161 513.361371 820.43161 502.780342 819.895285 492.111542 818.839934 481.6512 817.800066 471.344458 816.228422 460.994742 814.171446 450.8864 812.140878 440.909714 809.585821 430.922971 806.579122 421.204114 803.608845 411.6032 800.124098 402.030629 796.218667 392.754286 792.35148 383.5648 787.986211 374.458514 783.242146 365.686858 778.531773 356.971886 773.336066 348.382171 767.802536 340.155429 762.292683 331.963429 756.320261 323.941486 750.053723 316.3136 743.799934 308.704 737.10361 301.303771 730.149594 294.321371 723.198309 287.341714 715.829074 280.617142 708.247675 274.336 700.648066 268.040229 692.658731 262.044342 684.502765 256.514742 676.305821 250.9568 667.751024 245.739886 659.075122 241.012114 650.33457 236.247771 641.265301 231.863771 632.117723 227.982629 622.883642 224.064914 613.351805 220.565029 603.782634 217.578971 594.103285 214.56 584.157138 211.995429 574.222829 209.956571 564.152845 207.8912 553.843382 206.313142 543.581269 205.269029 533.164358 204.207542 522.538926 203.670858 512 203.670858 503.490731 203.670858 496.594992 196.746058 496.594992 188.202971 496.594992 179.659886 503.491642 172.735086 512 172.735086 523.571512 172.735086 535.242277 173.325714 546.68813 174.491429 557.974634 175.640686 569.313952 177.375086 580.390114 179.648914 591.321496 181.891658 602.268358 184.714058 612.922926 188.037486 623.45548 191.324342 633.947058 195.176229 644.109918 199.488 654.177171 203.759542 664.157918 208.583314 673.774438 213.825829 683.319024 219.0272 692.728845 224.764342 701.746211 230.878171 710.715317 236.96 719.499578 243.552914 727.856781 250.4768 736.191219 257.3824 744.292554 264.775314 751.936781 272.448914 759.581918 280.125258 766.945691 288.260571 773.820488 296.628114 780.713496 305.014858 787.27961 313.834971 793.339446 322.843429 799.426602 331.893029 805.140422 341.343086 810.323382 350.930286 815.541854 360.5824 820.346016 370.603886 824.602016 380.715886 828.899902 390.926629 832.73704 401.463771 836.005984 412.031086 839.315902 422.727314 842.126829 433.717029 844.360456 444.696686 846.623219 455.816229 848.353301 467.201829 849.496976 478.536229 850.657952 490.0288 851.246179 501.7472 851.246179 513.365942 851.246179 513.436342 851.246179 513.504 851.245269 513.5744 851.246179 513.6448 851.246179 513.712458 851.246179 513.782858 851.246179 521.653942 851.144195 529.635658 850.94296 537.508571 850.742634 545.344914 850.438504 553.276342 850.040586 561.084342 849.642667 568.8832 849.139122 576.762514 848.54452 584.503771 847.952651 592.221258 847.253333 600.0448 846.46387 607.757714 845.678048 615.434058 844.78387 623.200914 843.804098 630.8416 842.829789 638.4512 841.74439 646.157714 840.574309 653.746286 839.413333 661.283658 838.138536 668.927086 836.782699 676.459886 835.429594 683.973486 833.967219 691.550171 832.43291 698.9824 830.909528 706.370742 829.263219 713.880686 827.536781 721.300114 825.818536 728.687542 823.988293 736.125258 822.098862 743.410286 820.210341 750.691658 818.202536 758.057142 816.128261 765.300114 814.054894 772.540342 811.869528 779.829942 809.630438 786.9696 807.388618 794.121142 805.028422 801.333942 802.613594 808.405942 800.208781 815.458742 797.675578 822.592 795.087739 829.602742 792.521757 836.557714 789.819187 843.606858 787.060163 850.550858 784.307512 857.472 781.44013 864.433371 778.533594 871.248458 776.029528 877.118171 770.343024 880.6336 764.364227 880.6336L764.36696 880.628114ZM169.110634 792.353829C164.549594 792.353829 160.032261 790.3296 156.99278 786.448458 151.732423 779.733942 152.887935 770.008686 159.574244 764.726858 164.178992 761.088914 168.739122 757.278171 173.129886 753.397942 177.514277 749.524114 181.85587 745.469258 186.035382 741.344914 190.20852 737.226058 194.321562 732.937142 198.257952 728.599771 202.200715 724.255086 206.072456 719.744 209.766634 715.190858 213.463544 710.637714 217.084878 705.912686 220.533203 701.149258 223.987902 696.376686 227.348813 691.4496 230.522146 686.510629 233.710048 681.5488 236.798699 676.432458 239.706146 671.300571 242.622699 666.151314 245.431805 660.852114 248.053333 655.552 250.68761 650.2272 253.205333 644.757942 255.532747 639.296 257.874731 633.8048 260.089235 628.174629 262.114341 622.563658 264.152195 616.918858 266.053464 611.138742 267.768976 605.381486 269.492683 599.587658 271.07252 593.665829 272.46387 587.7824 273.865235 581.853258 275.111805 575.800686 276.168976 569.794742 277.235253 563.738514 278.138536 557.564342 278.854243 551.445029 279.577235 545.269942 280.126309 538.983314 280.488715 532.762514 280.80104 527.396571 280.983155 521.952914 281.028683 516.542171 280.813789 515.514514 280.701789 514.449371 280.701789 513.357714 280.701789 505.438171 281.101528 497.451886 281.893723 489.618286 282.674992 481.888 283.852358 474.125714 285.395773 466.545371 286.920976 459.055542 288.836813 451.560229 291.093203 444.269714 293.324098 437.059658 295.941074 429.8752 298.868554 422.916571 301.770536 416.020114 305.046765 409.186742 308.604358 402.607542 312.139187 396.071314 316.034602 389.629258 320.185886 383.457829 324.312586 377.320229 328.790765 371.306058 333.492032 365.585371 338.181464 359.879314 343.20052 354.333258 348.410797 349.101714 353.620163 343.871086 359.142765 338.831542 364.826536 334.122058 370.525789 329.400686 376.514602 324.905142 382.628163 320.760686 389.678699 315.978058 399.255155 317.844114 404.01743 324.924342 405.803058 327.580342 406.658082 330.590171 406.657171 333.570742 406.656261 338.536229 404.277854 343.413029 399.870699 346.400914 394.570277 349.994971 389.378211 353.891658 384.436554 357.985829 379.506731 362.069942 374.716227 366.442058 370.197984 370.977829 365.679739 375.515429 361.326309 380.325486 357.258797 385.274514 353.181269 390.236342 349.300422 395.450514 345.720976 400.771658 342.123317 406.121142 338.746016 411.703771 335.684683 417.368686 332.602406 423.069258 329.765074 428.987429 327.250992 434.962286 324.715968 440.986514 322.449562 447.207314 320.518243 453.450971 318.564163 459.764114 316.904195 466.253714 315.58387 472.7424 314.246243 479.311542 313.225496 486.0416 312.548942 492.7424 311.95343 498.641371 311.612878 504.645486 311.532747 510.624 311.742179 511.643429 311.853269 512.6976 311.853269 513.7792 311.853269 520.695771 311.649301 527.690971 311.249562 534.574629 310.852554 541.394286 310.248845 548.284342 309.456651 555.054629 308.671739 561.769142 307.68013 568.542171 306.51096 575.185371 305.350894 581.776458 303.982309 588.419658 302.444358 594.927542 300.917333 601.386971 299.18452 607.885714 297.289626 614.2464 295.40748 620.566858 293.318634 626.912 291.082277 633.106286 288.858667 639.266742 286.428358 645.4464 283.85691 651.474286 281.300942 657.469258 278.539187 663.470629 275.64904 669.316571 272.772554 675.132342 269.690277 680.946286 266.488715 686.596571 263.298992 692.226742 259.908942 697.841371 256.413269 703.282286 252.932163 708.701258 249.246179 714.103771 245.457301 719.338971 241.674797 724.5632 237.703805 729.743542 233.651773 734.736458 229.602472 739.727542 225.355578 744.673829 221.033106 749.437258 216.718829 754.192458 212.210602 758.893714 207.634992 763.409371 203.053918 767.931429 198.293464 772.376686 193.48657 776.623542 188.674211 780.875886 183.675187 785.054171 178.627902 789.041371 175.803317 791.275886 172.446048 792.357486 169.111544 792.357486L169.110634 792.353829ZM113.503089 696.081371C109.252553 696.081371 105.022959 694.325942 101.978927 690.884571 96.328846 684.497371 96.906146 674.720914 103.267382 669.046858 105.916228 666.686171 108.54322 664.218514 111.073691 661.716114 113.602341 659.215542 116.100032 656.616229 118.498472 653.989486 120.891447 651.367314 123.254374 648.640914 125.518049 645.889829 127.781724 643.137829 130.002602 640.291658 132.117854 637.430858 134.241301 634.560914 136.313756 631.599542 138.283317 628.628114 140.25652 625.649371 142.178732 622.578286 143.998049 619.498971 145.820098 616.413258 147.58478 613.239771 149.242927 610.063542 150.910179 606.869942 152.51278 603.597714 154.006114 600.333714 155.507642 597.047771 156.942699 593.681371 158.269398 590.324114 159.59974 586.954058 160.860878 583.498058 162.01548 580.053942 163.175544 576.590629 164.257301 573.053258 165.228878 569.539658 166.206829 566.005942 167.104651 562.390858 167.896845 558.7904 168.691773 555.178971 169.398374 551.490742 169.998438 547.828114 170.603968 544.138058 171.116618 540.381258 171.521821 536.663771 171.931578 532.9088 172.242082 529.088914 172.448781 525.309258 172.65548 521.499429 172.760195 517.6192 172.760195 513.781942 172.760195 513.711542 172.760195 513.642058 172.761106 513.573486 172.760195 513.503086 172.760195 513.435429 172.760195 513.365029 172.760195 501.746286 173.348422 490.027886 174.509398 478.535314 175.653984 467.201829 177.381333 455.816229 179.645918 444.694858 181.880456 433.714286 184.691382 422.723658 188.00039 412.029258 191.272066 401.457371 195.108293 390.922058 199.402536 380.715886 203.657626 370.606629 208.461789 360.586058 213.682082 350.930286 217.741398 343.423086 227.093854 340.640914 234.571446 344.715886 239.71252 347.518171 242.628163 352.832914 242.629984 358.320458 242.629984 360.813714 242.029918 363.343542 240.760586 365.690514 236.01652 374.465829 231.650341 383.572114 227.784066 392.757942 223.881366 402.031542 220.396618 411.6032 217.42452 421.207771 214.417821 430.923886 211.863675 440.910629 209.833106 450.889142 207.77613 460.999314 206.204488 471.351771 205.164618 481.656686 204.107446 492.116114 203.572942 502.784 203.572942 513.366858 203.572942 513.437258 203.572942 513.504914 203.572032 513.575314 203.572942 513.645714 203.572942 513.713371 203.572942 513.783771 203.572942 518.1824 203.452747 522.628571 203.21509 526.997942 202.978341 531.336229 202.621398 535.721142 202.152456 540.028342 201.687155 544.3008 201.098016 548.617142 200.403253 552.8576 199.71304 557.0688 198.899902 561.310171 197.984781 565.463771 197.075122 569.603658 196.042536 573.762742 194.917074 577.825829 193.798894 581.866058 192.555968 585.935542 191.219253 589.920914 189.892554 593.883429 188.442926 597.855086 186.911349 601.7344 185.384325 605.595429 183.737106 609.468342 182.009757 613.244342 180.293333 616.999314 178.451253 620.763429 176.534504 624.433371 174.628683 628.082286 172.600845 631.733029 170.505626 635.281371 168.416781 638.819658 166.207739 642.347886 163.940422 645.770058 161.67948 649.182171 159.29652 652.585142 156.858927 655.880229 154.430439 659.163429 151.879935 662.432 149.27935 665.594514 146.681496 668.753371 143.969821 671.882971 141.219902 674.895542 138.466341 677.909942 135.60078 680.893258 132.699707 683.762286 129.79135 686.637714 126.775545 689.470171 123.734244 692.183771 120.795837 694.798629 117.143545 696.085029 113.505821 696.085029L113.503089 696.081371ZM725.800715 587.231086C725.421918 587.231086 725.04039 587.217371 724.658862 587.189029 716.173269 586.563658 709.799285 579.149714 710.420293 570.629486 711.10413 561.264458 711.624976 551.746742 711.968261 542.338742 712.312456 532.873142 712.486374 523.263086 712.486374 513.778286 712.486374 513.707886 712.486374 513.6384 712.487285 513.569829 712.486374 513.499429 712.486374 513.431771 712.486374 513.361371 712.486374 506.474971 712.137626 499.538286 711.451968 492.741486 710.776325 486.047086 709.755578 479.318858 708.41704 472.7424 707.094894 466.250058 705.434926 459.760458 703.482667 453.4528 701.548618 447.203658 699.283122 440.983771 696.749918 434.962286 694.235837 428.990171 691.397594 423.069258 688.316227 417.3696 685.254894 411.707429 681.877594 406.122971 678.279934 400.7744 676.494309 398.120229 675.640195 395.108571 675.640195 392.128 675.641106 387.162514 678.019512 382.285714 682.425757 379.297829 689.475382 374.516114 699.052747 376.380342 703.815934 383.460571 707.966309 389.632 711.862634 396.074971 715.395642 402.609371 718.953235 409.1904 722.228554 416.021942 725.131446 422.9184 728.058016 429.870629 730.673171 437.055086 732.906797 444.271542 735.162277 451.555658 737.078114 459.049142 738.604227 466.546286 740.149464 474.136686 741.327739 481.9008 742.105366 489.621029 742.896651 497.448229 743.297301 505.435429 743.297301 513.360458 743.297301 513.430858 743.297301 513.498514 743.29639 513.568914 743.297301 513.639314 743.297301 513.706971 743.297301 513.777371 743.297301 523.636114 743.116098 533.626514 742.757333 543.467886 742.402211 553.251658 741.859512 563.151542 741.149269 572.888686 740.554667 581.024914 733.797333 587.228342 725.801626 587.228342L725.800715 587.231086ZM80.28826 531.511771C80.200846 531.511771 80.114341 531.510858 80.026927 531.509029L79.995968 531.509029C79.426862 531.498058 78.86322 531.456 78.310504 531.3856 78.30413 531.383771 78.297756 531.3856 78.28774 531.382858 78.281366 531.381942 78.273171 531.381029 78.264976 531.380114L78.264976 531.380114C70.693593 530.381714 64.896911 523.843658 64.874146 516.041142L64.874146 516.013714C64.874146 515.9872 64.873236 515.9616 64.873236 515.936 64.872325 515.890286 64.869593 515.791542 64.868683 515.745829L64.838634 514.900114C64.838634 514.876342 64.834992 514.772114 64.834081 514.749258 64.834081 514.725486 64.830439 514.621258 64.829528 514.5984L64.814959 513.9648C64.814049 513.92 64.814049 513.874286 64.813138 513.829486L64.810407 513.361371C64.810407 498.039771 65.585301 482.589258 67.115968 467.441371 68.62478 452.501942 70.903024 437.493942 73.886959 422.834286 76.83265 408.361142 80.538667 393.874286 84.899382 379.776914 89.213659 365.834058 94.270959 351.9488 99.930146 338.503314 105.53561 325.182171 111.868618 311.972571 118.75161 299.242058 125.580878 286.609371 133.114016 274.154058 141.138862 262.219886 149.122732 250.349714 157.778602 238.721829 166.868813 227.6608 175.934438 216.628114 185.639285 205.904458 195.715642 195.787886 201.731773 189.746286 211.485789 189.7472 217.501918 195.787886 223.518048 201.828571 223.518048 211.6224 217.501918 217.663086 208.117594 227.085714 199.076554 237.073371 190.633757 247.349029 182.167285 257.6512 174.106926 268.478171 166.67213 279.5328 159.2 290.644114 152.186797 302.240914 145.828293 314.001371 139.421528 325.852342 133.528325 338.146742 128.309854 350.544458 123.042211 363.057371 118.33639 375.981714 114.321691 388.955429 110.262374 402.074514 106.814959 415.556571 104.073236 429.027658 101.296 442.6752 99.175284 456.649142 97.769366 470.561829 96.406244 484.049371 95.685984 497.797486 95.625886 511.454171 95.739707 512.213029 95.798894 512.989258 95.798894 513.778286L95.796163 514.080914 95.754276 515.293258C95.751545 515.343542 95.749724 515.395658 95.745171 515.447771L95.726959 515.733942C95.725138 515.761371 95.718764 515.857371 95.716943 515.8848 95.714211 515.939658 95.71148 515.9808 95.706016 516.033829 95.703284 516.088686 95.701463 516.117029 95.696 516.170971 95.693268 516.224914 95.691447 516.254171 95.686894 516.306286 95.685073 516.344686 95.682341 516.382171 95.68052 516.420571 95.675057 516.709486 95.661398 516.993829 95.638634 517.278171L95.638634 517.2864C95.638634 517.290971 95.637724 517.298286 95.637724 517.302858 95.017626 525.310171 88.350439 531.510858 80.28735 531.511771L80.28826 531.511771ZM943.784586 528.829258C935.275317 528.829258 928.379578 521.904458 928.379578 513.361371 928.379578 499.085714 927.655675 484.685714 926.231544 470.560914 924.828358 456.657371 922.706731 442.682514 919.926765 429.026742 917.18413 415.552 913.735805 402.069029 909.678309 388.954514 905.667253 375.989942 900.96143 363.066514 895.691058 350.543542 890.472586 338.144 884.576651 325.8496 878.170797 314.001371 871.813203 302.240914 864.79909 290.644114 857.326048 279.5328 849.88943 268.474514 841.826341 257.646629 833.365333 247.349029 824.917984 237.069714 815.877854 227.082058 806.497171 217.663086 800.48104 211.6224 800.48013 201.828571 806.497171 195.787886 812.513301 189.7472 822.267317 189.7472 828.283446 195.787886 838.355253 205.9008 848.061918 216.624458 857.130277 227.6608 866.216845 238.717258 874.872715 250.344229 882.859317 262.218971 890.885984 274.154058 898.418211 286.609371 905.24748 299.242058 912.129562 311.970742 918.46257 325.181258 924.069854 338.503314 929.732683 351.959771 934.789074 365.846858 939.099707 379.776914 943.460422 393.8688 947.165528 408.355658 950.11213 422.834286 953.097886 437.504914 955.375219 452.512 956.884032 467.442286 958.414699 482.599314 959.189594 498.048914 959.189594 513.362286 959.189594 521.905371 952.292942 528.829258 943.784586 528.829258L943.784586 528.829258ZM664.696066 375.512686C660.753301 375.512686 656.810536 374.0032 653.802926 370.981486 649.285594 366.445714 644.49509 362.0736 639.563446 357.988571 634.622699 353.895314 629.429723 349.997714 624.130211 346.403658 618.807024 342.794058 613.245269 339.402971 607.600651 336.327314 601.918699 333.230629 596.024586 330.381714 590.07948 327.858286 584.077008 325.312 577.883317 323.036342 571.665952 321.098058 565.377562 319.136914 558.91343 317.469258 552.452032 316.143542 545.90504 314.800458 539.203253 313.774629 532.535155 313.096229 518.983155 311.717486 505.015024 311.717486 491.463934 313.096229 484.796747 313.774629 478.09496 314.801371 471.546146 316.143542 465.08657 317.470171 458.621528 319.136914 452.333138 321.098058 444.209952 323.633371 435.575024 319.073829 433.050016 310.914742 432.57743 309.384229 432.35252 307.838171 432.35252 306.3168 432.354341 299.722058 436.589398 293.613714 443.191024 291.554742 450.450992 289.289142 457.914926 287.365486 465.375219 285.834058 472.932942 284.283429 480.662765 283.100342 488.354341 282.318629 503.962406 280.7296 520.03213 280.7296 535.642016 282.318629 543.332683 283.100342 551.065235 284.284342 558.620227 285.834058 566.07961 287.365486 573.543544 289.289142 580.804422 291.554742 587.985171 293.794742 595.140422 296.421486 602.070765 299.362742 608.933723 302.274742 615.740227 305.564342 622.298146 309.138286 628.811446 312.689371 635.226406 316.600686 641.370016 320.766171 647.480845 324.910629 653.47239 329.406171 659.169821 334.126629 664.855414 338.837942 670.378016 343.8784 675.586472 349.1072 678.594082 352.127086 680.099253 356.085942 680.099253 360.0448 680.099253 364.003658 678.594992 367.962514 675.586472 370.9824 672.578862 374.000458 668.636098 375.512686 664.694243 375.512686L664.696066 375.512686ZM282.957269 298.851658C279.014504 298.851658 275.072651 297.342171 272.06413 294.320458 269.05652 291.300571 267.551349 287.341714 267.551349 283.382858 267.551349 279.424 269.054699 275.465142 272.06413 272.445258 279.703805 264.7744 287.805138 257.380571 296.14504 250.473142 304.504976 243.547429 313.290146 236.9536 322.25561 230.874514 331.26387 224.764342 340.675512 219.0272 350.226472 213.822171 359.843902 208.580571 369.824651 203.755886 379.891902 199.484342 390.055675 195.171658 400.547253 191.319771 411.077984 188.034742 421.733464 184.7104 432.679414 181.888 443.611707 179.646171 451.95343 177.937371 460.086634 183.3344 461.789398 191.704686 462.002472 192.749714 462.104456 193.794742 462.104456 194.8224 462.102634 202.016914 457.074472 208.4608 449.779902 209.957486 439.845594 211.995429 429.901269 214.56 420.219187 217.579886 410.652747 220.564114 401.11909 224.064 391.885008 227.982629 382.73652 231.863771 373.667253 236.247771 364.92761 241.012114 356.245333 245.745371 347.690536 250.960458 339.499968 256.514742 331.346731 262.042514 323.357398 268.0384 315.755058 274.336914 308.170926 280.6208 300.802602 287.343542 293.853138 294.321371 290.843707 297.340342 286.900942 298.851658 282.95909 298.851658L282.957269 298.851658ZM753.48657 169.276342C750.519024 169.276342 747.522341 168.417829 744.878048 166.625829 733.814634 159.1232 722.264976 152.081371 710.550504 145.696 698.752261 139.264914 686.507837 133.346743 674.155968 128.104229 661.688456 122.813257 648.817562 118.088229 635.902048 114.059886 627.77613 111.525486 623.236942 102.856229 625.76104 94.698057 628.284227 86.538971 636.920066 81.980343 645.042341 84.514743 658.921235 88.843886 672.75187 93.921829 686.148163 99.605943 699.420618 105.238857 712.57561 111.5968 725.250731 118.505143 737.832066 125.3632 750.237659 132.927086 762.122406 140.984686 769.172942 145.7664 771.028683 155.380114 766.268227 162.461258 763.290667 166.888229 758.43187 169.275429 753.48657 169.275429L753.48657 169.276342ZM270.51343 169.276342C265.566309 169.276342 260.708422 166.889142 257.731773 162.462171 252.969496 155.382857 254.827058 145.767314 261.877594 140.9856 273.763253 132.927086 286.168845 125.364114 298.750179 118.506057 311.42348 111.598629 324.579382 105.238857 337.851837 99.607771 351.24904 93.922743 365.078765 88.845714 378.957659 84.515657 392.991349 80.138057 407.419317 76.416914 421.84 73.458286 436.443707 70.461257 451.39161 68.174629 466.266667 66.659657 481.357528 65.122743 496.744325 64.344686 512 64.344686 527.257496 64.344686 542.644293 65.123657 557.733333 66.659657 566.197984 67.521829 572.364358 75.1104 571.505691 83.610514 570.647024 92.110629 563.083837 98.2976 554.624651 97.439086 540.563642 96.007314 526.221269 95.282286 511.998179 95.282286 497.77509 95.282286 483.433626 96.009143 469.372618 97.439086 455.52013 98.848914 441.603902 100.9792 428.007285 103.768686 414.585496 106.522514 401.157333 109.984914 388.097952 114.058971 375.181528 118.088229 362.310634 122.812343 349.843122 128.103314 337.490341 133.344 325.245918 139.264 313.449496 145.695086 301.735934 152.078629 290.187187 159.121371 279.12013 166.624914 276.476747 168.417829 273.478243 169.276342 270.51161 169.276342L270.51343 169.276342Z" fill="#a9b7b7"></path></g></g></svg>